<svg xmlns="http://www.w3.org/2000/svg" width="768" height="37.5" xmlns:v="https://vecta.io/nano"><defs><clipPath id="A"><path d="M5.051 19H113v18.008H5.051zm0 0"/></clipPath><clipPath id="B"><path d="M109 19h115v18.008H109zm0 0"/></clipPath><clipPath id="C"><path d="M216 19h115v18.008H216zm0 0"/></clipPath><clipPath id="D"><path d="M320 19h115v18.008H320zm0 0"/></clipPath><clipPath id="E"><path d="M424 19h116v18.008H424zm0 0"/></clipPath><clipPath id="F"><path d="M527 19h115v18.008H527zm0 0"/></clipPath><clipPath id="G"><path d="M611 19h116v18.008H611zm0 0"/></clipPath><clipPath id="H"><path d="M669 19h93.945v18.008H669zm0 0"/></clipPath></defs><g clip-path="url(#A)"><path fill="#fbb92c" d="M111.449 96.031c.234.777-1.414-.047-1.258 0-.191-.926-2.445 1.027-3.555 0-.664 1.117-1.555.953-1.953.344-1.437.262-1.055-.691-3.57-.344-1.766 1.633-2.379 1.527-3.723.102-.672.238-2.668-.691-3.441-.102-.707.914-1.805 2.367-3.91.328-1.484-.656-3.008-.766-4.57-.328-1.309-.59-2.676-.961-4.102-1.117-2.5-.441-4.246.016-5.363 1.117-2.469.777-2.719.027-4.242-.078-2.516-.402-3.715.156-5.875.078.191.199-1.617-.379-2.594 0-.703.434-2.453.781-2.609 0-1.078 1.863-2.25.234-2.617 0-1.055.535-2.098-1.508-2.625 0-1.25-.246-1.57.461-2.094.102-.457-.832-.762-.41-2.793.574-.93 1.23-1.379.363-2.309.434-.875-1.156-2.691-.27-3.258-1.113-.316.074-1.508-2.027-2.465-1.609-1.02.543-1.934.27-2.57 1.426-.059 2.168-.02 1.371-2.324.605-1.266 1.09-1.406-.605-2.762-.422-1.082-.238-1.004.117-1.824-.289-.215-.148-.449-.254-.699-.316s-.512-.086-.77-.059a2.22 2.22 0 0 0-.742.211c-.234.113-.441.266-.625.453-3.047-1.484-2.605.387-4.801 0-1.559-1.5-2.984-1.812-4.617 0-2.129-.73-2.949.52-3.863 0-1.363 1.777-1.242 2.016-3.648.184-.449.695-2.281.68-3.516-.184-1.074-1.543-1.641.262-2.961-.199-.484.566-.375-.242-2.566.199.02-1.625-3.258.309-3.555 0-1.641.664-.898-.375-1.258 0 .434 2.172.262-1.836 0-1.75.953.414.23-.812.18-1.828-.27.848-1.637-1.004-.18-2.969.016-.996.113-1.984.301-2.965-.879.961-.25-1.145-.301-4.207.559-.52.375-1.805.406-2.695-.473-2.043-.469-.168-.402-1.566-.656-2.711-.383-3.082-.113-2.762-.285.496 1.02-.996.113-1.84-.258 1.625.336-1.137.016-2.613-.789-1.316.441.609-.012-.199-1.187-.953.668-.07-.406-1.867 1.445 0 0 .199.227-2.195 1.535-1.922.699.477.176-3.004.734-1.527 1.238-2.387.07-3-1.953-1.434-1.09-1.27.109-2.145-.824-1.211-.668-.09.199-2.699-1.18 1.656-.145-2.93-.379-2.371 1.18 1.617 1.641 1.977.371-1.687-.246.473-.898-1.004-.277-2.773.133-1.414.102-.156-.117-2.281-.461.105-.328-3.629.023-3.137-.656.211-.012-2.953-.027-1.848.449 1.781.5-2.09-.016-2.375.828-.598 1.137-2.336.32-2.457-.559-.559-.137.387-.277-2.184-.988-2 .34-1.512.141-3.551.656-.598 1.137-3.082-.141-3.617-.246-.102-.191-.695.066-2.684.172.133.047-2.586-.066-2.113-.07-3.406.836-2.918 0-1.754-.641 1.555.941-1.332 1.258 0 .5-.57 2.32-.102 1.664-1.012-.836-1.391 2.27 1.457 1.895 1.012.168-2.094 2.297-.73 2.871.168.641-.637 2.156.461 2.656-.168 1.66-.836 2.434.129 4.176.008.68.555 2.004-.539 2.992-.008 1.188.098 2.324.594 4.195-.129 1.195 1.203 3.016 1.652 4.285.129 1.109-1.215 3.953 2.391 4.57-.164 1.656 1.277 2.18 1.156 4.883.164 1.238-1.23 2.727.078 4.445-.363a8.99 8.99 0 0 0 2.469.645c1.09.141 2.16.047 3.207-.281 1.496-.34 1.469-.551 2.98.914 1.469.25 1.457-.207 1.996-.707.863.203 1.738.301 2.629.289 1.293.512 1.895-.91 2.84-.492 2.133 1.059 3.164-.953 5.148-.613 1.738-1.375 3.82-.684 5.301.609 2.25 1.473 3.941-.227 5.121 0 1.176 1.016 3.676-1.164 4.996 0 2.094.625 4.359.313 5.621.355 1.773-.867 2.004-1.457 3.844-.355 3.25 1.156 3.508.664 4.762-.719.262 1.59 3.129-.27 3.719.719 1.547 2.176 2.777.836 3.852-.371 1.52-.934 1.867 1.043 3.313.371-.324 1.207 1.703-.16 2.574-.09 2.063.48 2.551.395 2.949.09-.156-1.219 1.039-1.41 3.555 0 .875.223 1.297 1.988 1.258 0 1.27.199.262.563 0 1.75.52-1.566-.137.602-.18 1.48.441-.02.074.219.18 3.316.301.766-.879.398-.266 2.586-.859.977 1.086 1.375.266 4.582.094 1.055.84 2.93-.07 4.469-.332.039-.367.934-.293 1.922a18.23 18.23 0 0 0 .363 2.473c-.859.785.055 1.074.219 1.438-.523.852.586-.297-.129 2.715-.613-.105 1.035 1.57.031 2.055a3.62 3.62 0 0 0-.547 1.82 3.63 3.63 0 0 0 .426 1.852c-.629 1.82.676.613-.207 2.309-.277 0 .09.879.453 2.461-.625.586-.348.609.223 2.223.535.16-1.172 3.148-.469 3.227 1.133 2.098 1.168.965.32 1.887.688 3.441-.516 3.207-.051 3.262-.164-.848 1.773-1.121.461 1.945.539 2.141.445 3.043-.73 2.789-.945-1.508.629 2.828.629 1.715-.766 1.426-2.23 2.25-.328 3.066-1.086-.172-.742 2.051-.008 1.969-.508 1.457.383-.598-.293 2.109-.871.129-1.34.219-.574 1.68.23.633.672 2.523.359 2.09-.461 1.273.816 2.762.215 3.406-.059 1.867.965 2.734 0 2.738-.723 2.461-.473 2.039 0 2.059-.855 1.301-.742 2.613 0 1.75zm0 0"/></g><g clip-path="url(#B)"><path fill="#fbb92c" d="M222.551 96.031c.23.777-1.414-.047-1.258 0-.191-.926-2.449 1.027-3.555 0-.668 1.117-1.555.953-1.957.344-1.437.262-1.051-.691-3.566-.344-1.766 1.633-2.383 1.527-3.727.102-.672.238-2.664-.691-3.441-.102-.707.914-1.801 2.367-3.91.328-1.48-.656-3.004-.766-4.566-.328a13.49 13.49 0 0 0-4.105-1.117c-2.5-.441-4.246.016-5.359 1.117-2.469.777-2.723.027-4.242-.078-2.516-.402-3.719.156-5.879.078.191.199-1.617-.379-2.59 0-.707.434-2.453.781-2.609 0-1.082 1.863-2.254.234-2.621 0-1.055.535-2.094-1.508-2.625 0-1.25-.246-1.57.461-2.094.102-.457-.832-.758-.41-2.793.574-.926 1.23-1.379.363-2.305.434-.879-1.156-2.691-.27-3.262-1.113-.312.074-1.504-2.027-2.461-1.609-1.023.543-1.934.27-2.574 1.426-.055 2.168-.02 1.371-2.32.605-1.266 1.09-1.41-.605-2.762-.422-1.086-.238-1.004.117-1.824-.289-.215-.148-.449-.254-.703-.316a2.13 2.13 0 0 0-.77-.059c-.258.027-.504.098-.738.211a2.12 2.12 0 0 0-.625.453c-3.051-1.484-2.609.387-4.805 0-1.559-1.5-2.984-1.812-4.613 0-2.129-.73-2.949.52-3.863 0-1.363 1.777-1.242 2.016-3.648.184-.449.695-2.285.68-3.52-.184-1.07-1.543-1.637.262-2.957-.199-.484.566-.379-.242-2.566.199.02-1.625-3.258.309-3.555 0-1.645.664-.898-.375-1.258 0 .434 2.172.258-1.836 0-1.75.949.414.23-.812.176-1.828-.266.848-1.637-1.004-.176-2.969a17.18 17.18 0 0 1 .297-2.965c-.875.961-.25-1.145-.297-4.207.555-.52.371-1.805.402-2.695-.469-2.043-.465-.168-.398-1.566-.656-2.711-.383-3.082-.117-2.762-.281.496 1.02-.996.117-1.84-.258 1.625.336-1.137.016-2.613-.789-1.316.441.609-.012-.199-1.191-.953.668-.07-.406-1.867 1.441 0 0 .199.227-2.195 1.531-1.922.699.477.176-3.004.73-1.527 1.238-2.387.066-3-1.953-1.434-1.086-1.27.109-2.145-.82-1.211-.664-.09.199-2.699-1.18 1.656-.145-2.93-.375-2.371 1.176 1.617 1.637 1.977.367-1.687-.242.473-.898-1.004-.273-2.773.129-1.414.098-.156-.117-2.281-.465.105-.328-3.629.023-3.137-.66.211-.012-2.953-.027-1.848.445 1.781.496-2.09-.016-2.375.824-.598 1.137-2.336.32-2.457-.559-.559-.141.387-.277-2.184-.992-2 .34-1.512.141-3.551.652-.598 1.137-3.082-.141-3.617-.246-.102-.195-.695.066-2.684.168.133.047-2.586-.066-2.113-.07-3.406.832-2.918 0-1.754-.645 1.555.941-1.332 1.258 0 .496-.57 2.32-.102 1.664-1.012-.84-1.391 2.266 1.457 1.895 1.012.164-2.094 2.293-.73 2.867.168.645-.637 2.16.461 2.656-.168 1.664-.836 2.438.129 4.176.008.684.555 2.004-.539 2.992-.008 1.188.098 2.328.594 4.195-.129 1.199 1.203 3.02 1.652 4.289.129 1.105-1.215 3.953 2.391 4.566-.164 1.66 1.277 2.18 1.156 4.887.164 1.238-1.23 2.723.078 4.441-.363a9.03 9.03 0 0 0 2.469.645c1.09.141 2.16.047 3.207-.281 1.496-.34 1.473-.551 2.984.914 1.469.25 1.457-.207 1.992-.707a10.85 10.85 0 0 0 2.629.289c1.297.512 1.895-.91 2.844-.492 2.133 1.059 3.16-.953 5.145-.613 1.738-1.375 3.82-.684 5.301.609 2.254 1.473 3.945-.227 5.125 0 1.176 1.016 3.676-1.164 4.996 0 2.094.625 4.359.313 5.621.355 1.773-.867 2-1.457 3.844-.355 3.25 1.156 3.508.664 4.762-.719.262 1.59 3.129-.27 3.715.719 1.547 2.176 2.777.836 3.855-.371 1.52-.934 1.867 1.043 3.313.371-.324 1.207 1.699-.16 2.57-.09 2.066.48 2.551.395 2.953.09-.156-1.219 1.039-1.41 3.555 0 .875.223 1.297 1.988 1.258 0 1.27.199.258.563 0 1.75.52-1.566-.137.602-.18 1.48.441-.02.07.219.18 3.316.301.766-.879.398-.266 2.586-.859.977 1.086 1.375.266 4.582.094 1.055.84 2.93-.074 4.469-.332.039-.363.934-.289 1.922.063.832.184 1.656.363 2.473-.859.785.051 1.074.215 1.438-.52.852.59-.297-.125 2.715-.613-.105 1.035 1.57.031 2.055-.344.559-.527 1.164-.551 1.82s.121 1.273.43 1.852c-.633 1.82.676.613-.207 2.309-.281 0 .09.879.453 2.461-.629.586-.348.609.219 2.223.539.16-1.172 3.148-.465 3.227 1.133 2.098 1.164.965.32 1.887.688 3.441-.52 3.207-.051 3.262-.168-.848 1.77-1.121.461 1.945.539 2.141.441 3.043-.73 2.789-.945-1.508.625 2.828.629 1.715-.77 1.426-2.234 2.25-.328 3.066-1.086-.172-.742 2.051-.012 1.969-.508 1.457.383-.598-.289 2.109-.875.129-1.34.219-.574 1.68.23.633.672 2.523.355 2.09-.461 1.273.82 2.762.219 3.406-.062 1.867.965 2.734 0 2.738-.727 2.461-.473 2.039 0 2.059-.855 1.301-.742 2.613 0 1.75zm0 0"/></g><g clip-path="url(#C)"><path fill="#fbb92c" d="M329.371 96.031c.23.777-1.414-.047-1.258 0-.191-.926-2.449 1.027-3.555 0-.664 1.117-1.555.953-1.957.344-1.437.262-1.051-.691-3.566-.344-1.766 1.633-2.383 1.527-3.727.102-.672.238-2.664-.691-3.441-.102-.707.914-1.801 2.367-3.906.328-1.484-.656-3.008-.766-4.57-.328a13.49 13.49 0 0 0-4.105-1.117c-2.5-.441-4.246.016-5.359 1.117-2.469.777-2.723.027-4.242-.078-2.516-.402-3.719.156-5.875.078.188.199-1.621-.379-2.594 0-.707.434-2.453.781-2.609 0-1.082 1.863-2.254.234-2.621 0-1.055.535-2.094-1.508-2.625 0-1.25-.246-1.57.461-2.094.102-.453-.832-.758-.41-2.793.574-.926 1.23-1.379.363-2.305.434-.879-1.156-2.691-.27-3.262-1.113-.312.074-1.504-2.027-2.461-1.609-1.02.543-1.934.27-2.574 1.426-.055 2.168-.016 1.371-2.32.605-1.266 1.09-1.41-.605-2.762-.422-1.082-.238-1.004.117-1.824-.289-.215-.148-.449-.254-.703-.316a2.12 2.12 0 0 0-.77-.059c-.258.027-.504.098-.738.211a2.17 2.17 0 0 0-.625.453c-3.051-1.484-2.605.387-4.805 0-1.559-1.5-2.984-1.812-4.613 0-2.129-.73-2.949.52-3.863 0-1.363 1.777-1.242 2.016-3.648.184-.449.695-2.281.68-3.52-.184-1.07-1.543-1.637.262-2.957-.199-.484.566-.375-.242-2.566.199.02-1.625-3.258.309-3.555 0-1.641.664-.898-.375-1.258 0 .434 2.172.258-1.836 0-1.75.953.414.23-.812.176-1.828-.266.848-1.633-1.004-.176-2.969a17.18 17.18 0 0 1 .297-2.965c-.875.961-.246-1.145-.297-4.207.555-.52.371-1.805.402-2.695-.469-2.043-.465-.168-.398-1.566-.656-2.711-.383-3.082-.117-2.762-.281.496 1.02-.996.117-1.84-.258 1.625.336-1.137.016-2.613-.789-1.316.441.609-.012-.199-1.187-.953.668-.07-.406-1.867 1.441 0 0 .199.227-2.195 1.531-1.922.699.477.176-3.004.73-1.527 1.238-2.387.066-3-1.949-1.434-1.086-1.27.109-2.145-.82-1.211-.664-.09.199-2.699-1.18 1.656-.141-2.93-.375-2.371 1.176 1.617 1.637 1.977.367-1.687-.242.473-.895-1.004-.273-2.773.129-1.414.098-.156-.117-2.281-.465.105-.328-3.629.023-3.137-.66.211-.012-2.953-.027-1.848.445 1.781.5-2.09-.016-2.375.824-.598 1.137-2.336.32-2.457-.559-.559-.137.387-.277-2.184-.988-2 .34-1.512.141-3.551.656-.598 1.137-3.082-.141-3.617-.246-.102-.191-.695.066-2.684.168.133.047-2.586-.066-2.113-.07-3.406.832-2.918 0-1.754-.645 1.555.941-1.332 1.258 0 .5-.57 2.32-.102 1.664-1.012-.84-1.391 2.27 1.457 1.895 1.012.164-2.094 2.293-.73 2.867.168.645-.637 2.16.461 2.656-.168 1.664-.836 2.438.129 4.176.008.684.555 2.004-.539 2.992-.008 1.188.098 2.328.594 4.195-.129 1.199 1.203 3.02 1.652 4.289.129 1.105-1.215 3.953 2.391 4.566-.164 1.66 1.277 2.18 1.156 4.887.164 1.238-1.23 2.723.078 4.441-.363a9.02 9.02 0 0 0 2.473.645c1.09.141 2.156.047 3.207-.281 1.492-.34 1.469-.551 2.98.914 1.469.25 1.457-.207 1.992-.707a10.85 10.85 0 0 0 2.629.289c1.297.512 1.895-.91 2.844-.492 2.133 1.059 3.16-.953 5.148-.613 1.734-1.375 3.816-.684 5.301.609 2.25 1.473 3.941-.227 5.121 0 1.176 1.016 3.676-1.164 4.996 0 2.094.625 4.359.313 5.621.355 1.773-.867 2-1.457 3.844-.355 3.25 1.156 3.508.664 4.762-.719.262 1.59 3.129-.27 3.715.719 1.547 2.176 2.777.836 3.855-.371 1.52-.934 1.867 1.043 3.313.371-.324 1.207 1.699-.16 2.57-.09 2.066.48 2.551.395 2.953.09-.156-1.219 1.039-1.41 3.555 0 .875.223 1.297 1.988 1.258 0 1.27.199.258.563 0 1.75.52-1.566-.137.602-.18 1.48.441-.02.07.219.18 3.316.301.766-.879.398-.266 2.586-.859.977 1.086 1.375.266 4.582.094 1.055.84 2.93-.074 4.469-.332.039-.363.934-.289 1.922.063.832.184 1.656.363 2.473-.859.785.051 1.074.215 1.438-.52.852.59-.297-.125 2.715-.613-.105 1.035 1.57.031 2.055-.344.559-.527 1.164-.551 1.82s.125 1.273.43 1.852c-.633 1.82.676.613-.207 2.309-.281 0 .09.879.453 2.461-.625.586-.348.609.219 2.223.539.16-1.172 3.148-.465 3.227 1.133 2.098 1.164.965.32 1.887.688 3.441-.52 3.207-.051 3.262-.164-.848 1.77-1.121.461 1.945.539 2.141.441 3.043-.73 2.789-.945-1.508.625 2.828.629 1.715-.77 1.426-2.23 2.25-.328 3.066-1.086-.172-.742 2.051-.008 1.969-.512 1.457.379-.598-.293 2.109-.875.129-1.34.219-.574 1.68.23.633.672 2.523.355 2.09-.461 1.273.82 2.762.219 3.406-.062 1.867.965 2.734 0 2.738-.727 2.461-.473 2.039 0 2.059-.855 1.301-.742 2.613 0 1.75zm0 0"/></g><g clip-path="url(#D)"><path fill="#fbb92c" d="M433.184 96.031c.23.777-1.414-.047-1.258 0-.191-.926-2.449 1.027-3.559 0-.664 1.117-1.555.953-1.953.344-1.437.262-1.051-.691-3.57-.344-1.766 1.633-2.379 1.527-3.723.102-.672.238-2.668-.691-3.441-.102-.707.914-1.801 2.367-3.91.328-1.484-.656-3.008-.766-4.57-.328-1.309-.59-2.676-.961-4.102-1.117-2.5-.441-4.246.016-5.359 1.117-2.473.777-2.723.027-4.246-.078-2.516-.402-3.715.156-5.875.078.191.199-1.617-.379-2.594 0-.703.434-2.453.781-2.609 0-1.078 1.863-2.25.234-2.617 0-1.055.535-2.094-1.508-2.625 0-1.25-.246-1.57.461-2.094.102-.457-.832-.762-.41-2.793.574-.926 1.23-1.379.363-2.305.434-.879-1.156-2.695-.27-3.262-1.113-.312.074-1.504-2.027-2.465-1.609-1.02.543-1.93.27-2.57 1.426-.059 2.168-.02 1.371-2.32.605-1.266 1.09-1.41-.605-2.766-.422-1.082-.238-1 .117-1.824-.289-.215-.148-.445-.254-.699-.316a2.13 2.13 0 0 0-.77-.059c-.258.027-.508.098-.742.211s-.441.266-.621.453c-3.051-1.484-2.609.387-4.805 0-1.559-1.5-2.984-1.812-4.613 0-2.133-.73-2.953.52-3.867 0-1.363 1.777-1.242 2.016-3.645.184-.449.695-2.285.68-3.52-.184-1.07-1.543-1.641.262-2.957-.199-.484.566-.379-.242-2.566.199.016-1.625-3.262.309-3.559 0-1.641.664-.895-.375-1.258 0 .438 2.172.262-1.836 0-1.75.953.414.234-.812.18-1.828-.27.848-1.637-1.004-.18-2.969a17.58 17.58 0 0 1 .301-2.965c-.875.961-.25-1.145-.301-4.207.559-.52.375-1.805.406-2.695-.469-2.043-.465-.168-.398-1.566-.656-2.711-.387-3.082-.117-2.762-.281.496 1.02-.996.117-1.84-.258 1.625.332-1.137.012-2.613-.785-1.316.445.609-.008-.199-1.191-.953.668-.07-.406-1.867 1.441 0 0 .199.227-2.195 1.531-1.922.695.477.176-3.004.73-1.527 1.238-2.387.066-3-1.953-1.434-1.09-1.27.109-2.145-.82-1.211-.664-.09.199-2.699-1.18 1.656-.145-2.93-.379-2.371 1.18 1.617 1.641 1.977.371-1.687-.242.473-.898-1.004-.277-2.773.133-1.414.102-.156-.117-2.281-.461.105-.324-3.629.023-3.137-.656.211-.008-2.953-.023-1.848.445 1.781.496-2.09-.016-2.375.824-.598 1.133-2.336.316-2.457-.555-.559-.137.387-.277-2.184-.988-2 .34-1.512.141-3.551.656-.598 1.141-3.082-.141-3.617-.242-.102-.191-.695.07-2.684.168.133.043-2.586-.07-2.113-.066-3.406.836-2.918.004-1.754-.645 1.555.938-1.332 1.258 0 .496-.57 2.32-.102 1.664-1.012-.84-1.391 2.266 1.457 1.895 1.012.164-2.094 2.293-.73 2.867.168.645-.637 2.156.461 2.656-.168 1.664-.836 2.438.129 4.176.008.68.555 2.004-.539 2.992-.008 1.188.098 2.324.594 4.195-.129 1.195 1.203 3.02 1.652 4.289.129 1.105-1.215 3.949 2.391 4.566-.164 1.66 1.277 2.18 1.156 4.887.164 1.234-1.23 2.723.078 4.441-.363a9.03 9.03 0 0 0 2.469.645c1.09.141 2.16.047 3.207-.281 1.496-.34 1.473-.551 2.98.914 1.473.25 1.457-.207 1.996-.707a10.83 10.83 0 0 0 2.629.289c1.297.512 1.895-.91 2.844-.492 2.133 1.059 3.16-.953 5.145-.613 1.738-1.375 3.82-.684 5.301.609 2.254 1.473 3.941-.227 5.121 0 1.176 1.016 3.68-1.164 5 0 2.094.625 4.359.313 5.617.355 1.773-.867 2.004-1.457 3.844-.355 3.254 1.156 3.508.664 4.762-.719.262 1.59 3.129-.27 3.719.719 1.547 2.176 2.777.836 3.852-.371 1.52-.934 1.871 1.043 3.313.371-.32 1.207 1.703-.16 2.574-.09 2.066.48 2.551.395 2.949.09-.152-1.219 1.039-1.41 3.559 0 .875.223 1.297 1.988 1.258 0 1.27.199.258.563 0 1.75.52-1.566-.141.602-.18 1.48.438-.02.07.219.18 3.316.297.766-.879.398-.266 2.586-.863.977 1.086 1.375.266 4.582.09 1.055.836 2.93-.074 4.469-.332.039-.367.934-.293 1.922.066.832.188 1.656.367 2.473-.859.785.051 1.074.215 1.438-.523.852.59-.297-.129 2.715-.609-.105 1.035 1.57.031 2.055a3.66 3.66 0 0 0-.547 1.82c-.02.656.121 1.273.43 1.852-.633 1.82.672.613-.207 2.309-.281 0 .09.879.453 2.461-.629.586-.348.609.219 2.223.539.16-1.172 3.148-.465 3.227 1.129 2.098 1.164.965.316 1.887.688 3.441-.516 3.207-.047 3.262-.168-.848 1.77-1.121.461 1.945.535 2.141.441 3.043-.73 2.789-.949-1.508.625 2.828.625 1.715-.766 1.426-2.23 2.25-.324 3.066-1.09-.172-.742 2.051-.012 1.969-.508 1.457.383-.598-.289 2.109-.875.129-1.344.219-.574 1.68.227.633.668 2.523.355 2.09-.461 1.273.816 2.762.219 3.406-.062 1.867.965 2.734 0 2.738-.727 2.461-.473 2.039 0 2.059-.859 1.301-.746 2.613 0 1.75zm0 0"/></g><g clip-path="url(#E)"><path fill="#fbb92c" d="M537.957 96.031c.23.777-1.414-.047-1.258 0-.191-.926-2.449 1.027-3.555 0-.668 1.117-1.555.953-1.957.344-1.437.262-1.051-.691-3.566-.344-1.766 1.633-2.383 1.527-3.727.102-.672.238-2.664-.691-3.441-.102-.707.914-1.801 2.367-3.91.328-1.48-.656-3.004-.766-4.566-.328a13.49 13.49 0 0 0-4.105-1.117c-2.5-.441-4.246.016-5.359 1.117-2.469.777-2.723.027-4.242-.078-2.516-.402-3.719.156-5.879.078.191.199-1.617-.379-2.59 0-.707.434-2.453.781-2.609 0-1.082 1.863-2.254.234-2.621 0-1.055.535-2.094-1.508-2.625 0-1.25-.246-1.57.461-2.094.102-.457-.832-.758-.41-2.793.574-.926 1.23-1.379.363-2.305.434-.879-1.156-2.691-.27-3.262-1.113-.312.074-1.504-2.027-2.461-1.609-1.02.543-1.934.27-2.574 1.426-.055 2.168-.02 1.371-2.32.605-1.266 1.09-1.41-.605-2.762-.422-1.086-.238-1.004.117-1.824-.289-.215-.148-.449-.254-.703-.316a2.13 2.13 0 0 0-.77-.059c-.258.027-.504.098-.738.211a2.12 2.12 0 0 0-.625.453c-3.051-1.484-2.609.387-4.805 0-1.559-1.5-2.984-1.812-4.613 0-2.129-.73-2.949.52-3.863 0-1.363 1.777-1.242 2.016-3.648.184-.449.695-2.285.68-3.52-.184-1.07-1.543-1.637.262-2.957-.199-.484.566-.379-.242-2.566.199.02-1.625-3.258.309-3.555 0-1.645.664-.898-.375-1.258 0 .434 2.172.258-1.836 0-1.75.949.414.23-.812.176-1.828-.266.848-1.637-1.004-.176-2.969a17.18 17.18 0 0 1 .297-2.965c-.875.961-.25-1.145-.297-4.207.555-.52.371-1.805.402-2.695-.469-2.043-.465-.168-.398-1.566-.656-2.711-.383-3.082-.117-2.762-.281.496 1.02-.996.117-1.84-.258 1.625.336-1.137.016-2.613-.789-1.316.441.609-.012-.199-1.191-.953.668-.07-.406-1.867 1.441 0 0 .199.227-2.195 1.531-1.922.699.477.176-3.004.73-1.527 1.238-2.387.066-3-1.949-1.434-1.086-1.27.109-2.145-.82-1.211-.664-.09.199-2.699-1.18 1.656-.145-2.93-.375-2.371 1.176 1.617 1.637 1.977.367-1.687-.242.473-.898-1.004-.273-2.773.129-1.414.098-.156-.117-2.281-.465.105-.328-3.629.023-3.137-.66.211-.012-2.953-.027-1.848.445 1.781.496-2.09-.016-2.375.824-.598 1.137-2.336.32-2.457-.559-.559-.141.387-.277-2.184-.992-2 .34-1.512.141-3.551.652-.598 1.137-3.082-.141-3.617-.246-.102-.195-.695.066-2.684.168.133.047-2.586-.066-2.113-.07-3.406.832-2.918 0-1.754-.645 1.555.941-1.332 1.258 0 .5-.57 2.32-.102 1.664-1.012-.84-1.391 2.266 1.457 1.895 1.012.164-2.094 2.293-.73 2.867.168.645-.637 2.16.461 2.656-.168 1.664-.836 2.438.129 4.176.008.684.555 2.004-.539 2.992-.008 1.188.098 2.328.594 4.195-.129 1.199 1.203 3.02 1.652 4.289.129 1.105-1.215 3.953 2.391 4.566-.164 1.66 1.277 2.18 1.156 4.887.164 1.238-1.23 2.723.078 4.441-.363a9.02 9.02 0 0 0 2.473.645c1.086.141 2.156.047 3.203-.281 1.496-.34 1.473-.551 2.984.914 1.469.25 1.457-.207 1.992-.707a10.85 10.85 0 0 0 2.629.289c1.297.512 1.895-.91 2.844-.492 2.133 1.059 3.16-.953 5.145-.613 1.738-1.375 3.82-.684 5.301.609 2.254 1.473 3.945-.227 5.125 0 1.176 1.016 3.676-1.164 4.996 0 2.094.625 4.359.313 5.621.355 1.773-.867 2-1.457 3.844-.355 3.25 1.156 3.508.664 4.762-.719.262 1.59 3.129-.27 3.715.719 1.547 2.176 2.777.836 3.855-.371 1.52-.934 1.867 1.043 3.313.371-.324 1.207 1.699-.16 2.57-.09 2.066.48 2.551.395 2.953.09-.156-1.219 1.039-1.41 3.555 0 .875.223 1.297 1.988 1.258 0 1.27.199.258.563 0 1.75.52-1.566-.137.602-.18 1.48.441-.02.07.219.18 3.316.301.766-.879.398-.266 2.586-.859.977 1.086 1.375.266 4.582.094 1.055.84 2.93-.074 4.469-.332.039-.363.934-.289 1.922.063.832.184 1.656.363 2.473-.859.785.051 1.074.215 1.438-.52.852.59-.297-.125 2.715-.613-.105 1.035 1.57.031 2.055-.344.559-.527 1.164-.551 1.82s.121 1.273.43 1.852c-.633 1.82.676.613-.207 2.309-.281 0 .09.879.453 2.461-.629.586-.348.609.219 2.223.539.16-1.172 3.148-.465 3.227 1.133 2.098 1.164.965.32 1.887.688 3.441-.52 3.207-.051 3.262-.164-.848 1.77-1.121.461 1.945.539 2.141.441 3.043-.73 2.789-.945-1.508.625 2.828.629 1.715-.77 1.426-2.234 2.25-.328 3.066-1.086-.172-.742 2.051-.012 1.969-.508 1.457.383-.598-.289 2.109-.875.129-1.34.219-.574 1.68.23.633.672 2.523.355 2.09-.461 1.273.82 2.762.219 3.406-.062 1.867.965 2.734 0 2.738-.727 2.461-.473 2.039 0 2.059-.855 1.301-.742 2.613 0 1.75zm0 0"/></g><g clip-path="url(#F)"><path fill="#fbb92c" d="M640.316 96.031c.23.777-1.414-.047-1.258 0-.191-.926-2.449 1.027-3.555 0-.668 1.117-1.559.953-1.957.344-1.437.262-1.051-.691-3.57-.344-1.762 1.633-2.379 1.527-3.723.102-.672.238-2.664-.691-3.441-.102-.707.914-1.801 2.367-3.91.328-1.48-.656-3.004-.766-4.566-.328a13.49 13.49 0 0 0-4.105-1.117c-2.5-.441-4.246.016-5.359 1.117-2.469.777-2.723.027-4.242-.078-2.516-.402-3.719.156-5.879.078.191.199-1.617-.379-2.59 0-.707.434-2.453.781-2.609 0-1.082 1.863-2.254.234-2.621 0-1.055.535-2.094-1.508-2.625 0-1.25-.246-1.57.461-2.094.102-.457-.832-.758-.41-2.793.574-.926 1.23-1.379.363-2.305.434-.879-1.156-2.691-.27-3.262-1.113-.312.074-1.504-2.027-2.461-1.609-1.023.543-1.934.27-2.574 1.426-.055 2.168-.02 1.371-2.32.605-1.266 1.09-1.41-.605-2.762-.422-1.086-.238-1.004.117-1.824-.289-.215-.148-.449-.254-.703-.316a2.13 2.13 0 0 0-.77-.059 2.27 2.27 0 0 0-.742.211c-.234.113-.441.266-.621.453-3.051-1.484-2.609.387-4.805 0-1.559-1.5-2.984-1.812-4.613 0-2.129-.73-2.949.52-3.867 0-1.359 1.777-1.238 2.016-3.645.184-.449.695-2.285.68-3.52-.184-1.07-1.543-1.637.262-2.957-.199-.484.566-.379-.242-2.566.199.02-1.625-3.258.309-3.555 0-1.645.664-.898-.375-1.258 0 .434 2.172.258-1.836 0-1.75.949.414.23-.812.176-1.828-.266.848-1.637-1.004-.176-2.969a17.18 17.18 0 0 1 .297-2.965c-.875.961-.25-1.145-.297-4.207.555-.52.371-1.805.402-2.695-.469-2.043-.465-.168-.398-1.566-.656-2.711-.383-3.082-.117-2.762-.281.496 1.02-.996.117-1.84-.258 1.625.336-1.137.016-2.613-.789-1.316.441.609-.012-.199-1.191-.953.668-.07-.406-1.867 1.441 0 0 .199.227-2.195 1.531-1.922.699.477.176-3.004.73-1.527 1.238-2.387.066-3-1.953-1.434-1.086-1.27.109-2.145-.82-1.211-.664-.09.199-2.699-1.18 1.656-.145-2.93-.375-2.371 1.176 1.617 1.637 1.977.367-1.687-.242.473-.898-1.004-.273-2.773.129-1.414.098-.156-.117-2.281-.465.105-.328-3.629.023-3.137-.66.211-.012-2.953-.027-1.848.445 1.781.496-2.09-.016-2.375.824-.598 1.137-2.336.32-2.457-.559-.559-.141.387-.277-2.184-.992-2 .34-1.512.141-3.551.652-.598 1.137-3.082-.141-3.617-.246-.102-.195-.695.066-2.684.168.133.047-2.586-.066-2.113-.07-3.406.832-2.918 0-1.754-.645 1.555.941-1.332 1.258 0 .496-.57 2.32-.102 1.664-1.012-.84-1.391 2.266 1.457 1.895 1.012.164-2.094 2.293-.73 2.867.168.645-.637 2.156.461 2.656-.168 1.664-.836 2.438.129 4.176.008.684.555 2.004-.539 2.992-.008 1.188.098 2.328.594 4.195-.129 1.199 1.203 3.02 1.652 4.289.129 1.105-1.215 3.953 2.391 4.566-.164 1.66 1.277 2.18 1.156 4.887.164 1.238-1.23 2.723.078 4.441-.363a9.03 9.03 0 0 0 2.469.645c1.09.141 2.16.047 3.207-.281 1.496-.34 1.473-.551 2.984.914 1.469.25 1.457-.207 1.992-.707a10.85 10.85 0 0 0 2.629.289c1.297.512 1.895-.91 2.844-.492 2.133 1.059 3.16-.953 5.145-.613 1.738-1.375 3.82-.684 5.301.609 2.254 1.473 3.945-.227 5.125 0 1.172 1.016 3.676-1.164 4.996 0 2.094.625 4.359.313 5.621.355 1.773-.867 2-1.457 3.844-.355 3.25 1.156 3.508.664 4.762-.719.262 1.59 3.125-.27 3.715.719 1.547 2.176 2.777.836 3.855-.371 1.52-.934 1.867 1.043 3.309.371-.32 1.207 1.703-.16 2.574-.09 2.066.48 2.551.395 2.953.09-.156-1.219 1.039-1.41 3.555 0 .875.223 1.297 1.988 1.258 0 1.27.199.258.563 0 1.75.52-1.566-.137.602-.18 1.48.441-.02.07.219.18 3.316.301.766-.879.398-.266 2.586-.859.977 1.086 1.375.266 4.582.094 1.055.84 2.93-.074 4.469-.332.039-.363.934-.289 1.922.063.832.184 1.656.363 2.473-.859.785.051 1.074.215 1.438-.52.852.59-.297-.125 2.715-.613-.105 1.035 1.57.031 2.055-.344.559-.527 1.164-.551 1.82s.121 1.273.43 1.852c-.633 1.82.672.613-.207 2.309-.281 0 .09.879.453 2.461-.629.586-.348.609.219 2.223.539.16-1.172 3.148-.465 3.227 1.133 2.098 1.164.965.32 1.887.684 3.441-.52 3.207-.051 3.262-.168-.848 1.77-1.121.461 1.945.539 2.141.441 3.043-.73 2.789-.945-1.508.625 2.828.629 1.715-.77 1.426-2.234 2.25-.328 3.066-1.086-.172-.742 2.051-.012 1.969-.508 1.457.383-.598-.289 2.109-.875.129-1.34.219-.574 1.68.23.633.672 2.523.355 2.09-.461 1.273.82 2.762.219 3.406-.062 1.867.965 2.734 0 2.738-.727 2.461-.473 2.039 0 2.059-.855 1.301-.746 2.613 0 1.75zm0 0"/></g><g clip-path="url(#G)"><path fill="#fbb92c" d="M724.828 96.031c.234.777-1.414-.047-1.258 0-.191-.926-2.449 1.027-3.555 0-.664 1.117-1.555.953-1.953.344-1.437.262-1.055-.691-3.57-.344-1.766 1.633-2.379 1.527-3.723.102-.672.238-2.668-.691-3.441-.102-.707.914-1.805 2.367-3.91.328-1.484-.656-3.008-.766-4.57-.328-1.309-.59-2.676-.961-4.102-1.117-2.5-.441-4.246.016-5.363 1.117-2.469.777-2.719.027-4.242-.078-2.516-.402-3.715.156-5.875.078.191.199-1.617-.379-2.594 0-.703.434-2.453.781-2.609 0-1.078 1.863-2.25.234-2.621 0-1.051.535-2.094-1.508-2.621 0-1.254-.246-1.57.461-2.094.102-.457-.832-.762-.41-2.793.574-.93 1.23-1.379.363-2.309.434-.875-1.156-2.691-.27-3.258-1.113-.316.074-1.508-2.027-2.465-1.609-1.02.543-1.934.27-2.57 1.426-.059 2.168-.02 1.371-2.324.605-1.266 1.09-1.41-.605-2.762-.422-1.082-.238-1.004.117-1.824-.289-.215-.148-.449-.254-.699-.316s-.512-.086-.77-.059a2.22 2.22 0 0 0-.742.211c-.234.113-.441.266-.625.453-3.047-1.484-2.605.387-4.801 0-1.559-1.5-2.988-1.812-4.617 0-2.129-.73-2.949.52-3.863 0-1.363 1.777-1.242 2.016-3.648.184-.449.695-2.281.68-3.516-.184-1.074-1.543-1.641.262-2.961-.199-.484.566-.375-.242-2.566.199.02-1.625-3.258.309-3.555 0-1.641.664-.898-.375-1.258 0 .434 2.172.262-1.836 0-1.75.953.414.23-.812.18-1.828-.27.848-1.637-1.004-.18-2.969.016-.996.113-1.984.301-2.965-.879.961-.25-1.145-.301-4.207.559-.52.375-1.805.402-2.695-.469-2.043-.465-.168-.398-1.566-.656-2.711-.383-3.082-.113-2.762-.285.496 1.02-.996.113-1.84-.258 1.625.336-1.137.016-2.613-.789-1.316.441.609-.012-.199-1.187-.953.668-.07-.406-1.867 1.445 0 0 .199.227-2.195 1.535-1.922.699.477.176-3.004.73-1.527 1.238-2.387.07-3-1.953-1.434-1.09-1.27.109-2.145-.824-1.211-.668-.09.199-2.699-1.18 1.656-.145-2.93-.379-2.371 1.18 1.617 1.641 1.977.371-1.687-.246.473-.898-1.004-.277-2.773.133-1.414.102-.156-.117-2.281-.461.105-.328-3.629.023-3.137-.656.211-.012-2.953-.027-1.848.449 1.781.5-2.09-.016-2.375.828-.598 1.137-2.336.32-2.457-.559-.559-.137.387-.277-2.184-.988-2 .34-1.512.141-3.551.656-.598 1.137-3.082-.141-3.617-.246-.102-.191-.695.066-2.684.172.133.047-2.586-.066-2.113-.07-3.406.836-2.918 0-1.754-.641 1.555.941-1.332 1.258 0 .5-.57 2.32-.102 1.664-1.012-.836-1.391 2.27 1.457 1.895 1.012.168-2.094 2.293-.73 2.871.168.641-.637 2.156.461 2.656-.168 1.66-.836 2.434.129 4.176.008.68.555 2.004-.539 2.988-.008 1.188.098 2.328.594 4.199-.129 1.195 1.203 3.016 1.652 4.285.129 1.109-1.215 3.953 2.391 4.57-.164 1.656 1.277 2.18 1.156 4.883.164 1.238-1.23 2.723.078 4.445-.363.789.332 1.613.547 2.469.645 1.09.141 2.16.047 3.207-.281 1.496-.34 1.469-.551 2.98.914 1.469.25 1.457-.207 1.996-.707.863.203 1.738.301 2.629.289 1.293.512 1.895-.91 2.84-.492 2.133 1.059 3.164-.953 5.148-.613 1.738-1.375 3.82-.684 5.301.609 2.25 1.473 3.941-.227 5.121 0 1.176 1.016 3.676-1.164 4.996 0 2.094.625 4.359.313 5.621.355 1.773-.867 2.004-1.457 3.844-.355 3.25 1.156 3.508.664 4.762-.719.262 1.59 3.129-.27 3.719.719 1.547 2.176 2.777.836 3.852-.371 1.52-.934 1.867 1.043 3.313.371-.324 1.207 1.703-.16 2.574-.09 2.063.48 2.551.395 2.949.09-.156-1.219 1.039-1.41 3.555 0 .875.223 1.297 1.988 1.258 0 1.27.199.262.563 0 1.75.52-1.566-.137.602-.18 1.48.441-.02.074.219.18 3.316.301.766-.879.398-.266 2.586-.859.977 1.086 1.375.266 4.582.094 1.055.84 2.93-.07 4.469-.332.039-.367.934-.293 1.922a18.23 18.23 0 0 0 .363 2.473c-.859.785.055 1.074.219 1.438-.523.852.586-.297-.129 2.715-.613-.105 1.035 1.57.031 2.055a3.62 3.62 0 0 0-.547 1.82 3.63 3.63 0 0 0 .426 1.852c-.629 1.82.676.613-.207 2.309-.277 0 .09.879.453 2.461-.625.586-.348.609.223 2.223.535.16-1.172 3.148-.469 3.227 1.133 2.098 1.168.965.32 1.887.688 3.441-.516 3.207-.051 3.262-.164-.848 1.773-1.121.461 1.945.539 2.141.445 3.043-.73 2.789-.945-1.508.629 2.828.629 1.715-.766 1.426-2.23 2.25-.328 3.066-1.086-.172-.742 2.051-.008 1.969-.508 1.457.383-.598-.293 2.109-.875.129-1.34.219-.574 1.68.23.633.672 2.523.359 2.09-.461 1.273.816 2.762.215 3.406-.059 1.867.965 2.734 0 2.738-.723 2.461-.473 2.039 0 2.059-.855 1.301-.742 2.613 0 1.75zm0 0"/></g><g clip-path="url(#H)"><path fill="#fbb92c" d="M782.793 96.031c.23.777-1.414-.047-1.258 0-.191-.926-2.449 1.027-3.555 0-.664 1.117-1.555.953-1.957.344-1.434.262-1.051-.691-3.566-.344-1.766 1.633-2.383 1.527-3.723.102-.676.238-2.668-.691-3.445-.102-.703.914-1.801 2.367-3.906.328-1.484-.656-3.008-.766-4.57-.328-1.309-.59-2.676-.961-4.102-1.117-2.5-.441-4.246.016-5.363 1.117-2.469.777-2.719.027-4.242-.078-2.516-.402-3.715.156-5.875.078.188.199-1.621-.379-2.594 0-.707.434-2.453.781-2.609 0-1.082 1.863-2.254.234-2.621 0-1.055.535-2.094-1.508-2.625 0-1.25-.246-1.57.461-2.094.102-.453-.832-.758-.41-2.789.574-.93 1.23-1.379.363-2.309.434-.879-1.156-2.691-.27-3.262-1.113-.312.074-1.504-2.027-2.461-1.609-1.02.543-1.934.27-2.57 1.426-.059 2.168-.02 1.371-2.324.605-1.266 1.09-1.41-.605-2.762-.422-1.082-.238-1.004.117-1.824-.289-.215-.148-.449-.254-.703-.316s-.508-.086-.766-.059a2.22 2.22 0 0 0-.742.211 2.17 2.17 0 0 0-.625.453c-3.051-1.484-2.605.387-4.805 0-1.559-1.5-2.984-1.812-4.613 0-2.129-.73-2.949.52-3.863 0-1.363 1.777-1.242 2.016-3.648.184-.449.695-2.281.68-3.52-.184-1.07-1.543-1.637.262-2.957-.199-.484.566-.375-.242-2.566.199.02-1.625-3.258.309-3.555 0-1.641.664-.898-.375-1.258 0 .434 2.172.262-1.836 0-1.75.953.414.23-.812.176-1.828-.266.848-1.633-1.004-.176-2.969.016-.996.113-1.984.297-2.965-.875.961-.246-1.145-.297-4.207.555-.52.371-1.805.402-2.695-.469-2.043-.465-.168-.398-1.566-.656-2.711-.383-3.082-.117-2.762-.281.496 1.02-.996.117-1.84-.258 1.625.336-1.137.016-2.613-.789-1.316.441.609-.012-.199-1.187-.953.668-.07-.406-1.867 1.441 0 0 .199.227-2.195 1.531-1.922.699.477.176-3.004.73-1.527 1.238-2.387.07-3-1.953-1.434-1.09-1.27.105-2.145-.82-1.211-.664-.09.199-2.699-1.18 1.656-.141-2.93-.375-2.371 1.176 1.617 1.637 1.977.367-1.687-.242.473-.895-1.004-.273-2.773.129-1.414.098-.156-.117-2.281-.465.105-.328-3.629.023-3.137-.66.211-.012-2.953-.027-1.848.445 1.781.5-2.09-.016-2.375.828-.598 1.137-2.336.32-2.457-.559-.559-.137.387-.277-2.184-.988-2 .34-1.512.141-3.551.656-.598 1.137-3.082-.141-3.617-.246-.102-.191-.695.066-2.684.168.133.047-2.586-.066-2.113-.07-3.406.832-2.918 0-1.754-.641 1.555.941-1.332 1.258 0 .5-.57 2.32-.102 1.664-1.012-.84-1.391 2.27 1.457 1.895 1.012.168-2.094 2.293-.73 2.867.168.645-.637 2.16.461 2.656-.168 1.664-.836 2.438.129 4.176.008.684.555 2.008-.539 2.992-.008 1.188.098 2.328.594 4.195-.129 1.199 1.203 3.02 1.652 4.289.129 1.105-1.215 3.953 2.391 4.57-.164 1.656 1.277 2.176 1.156 4.883.164 1.238-1.23 2.723.078 4.441-.363a9.02 9.02 0 0 0 2.473.645c1.09.141 2.156.047 3.207-.281 1.496-.34 1.469-.551 2.98.914 1.469.25 1.457-.207 1.992-.707a10.85 10.85 0 0 0 2.629.289c1.297.512 1.895-.91 2.844-.492 2.133 1.059 3.16-.953 5.148-.613 1.734-1.375 3.816-.684 5.301.609 2.25 1.473 3.941-.227 5.121 0 1.176 1.016 3.676-1.164 4.996 0 2.094.625 4.359.313 5.621.355 1.773-.867 2.004-1.457 3.844-.355 3.25 1.156 3.508.664 4.762-.719.262 1.59 3.129-.27 3.715.719 1.551 2.176 2.781.836 3.855-.371 1.52-.934 1.867 1.043 3.313.371-.324 1.207 1.699-.16 2.57-.09 2.066.48 2.555.395 2.953.09-.156-1.219 1.039-1.41 3.555 0 .875.223 1.297 1.988 1.258 0 1.27.199.262.563 0 1.75.52-1.566-.137.602-.18 1.48.441-.02.07.219.18 3.316.301.766-.879.398-.266 2.586-.859.977 1.086 1.375.266 4.582.094 1.055.84 2.93-.07 4.469-.332.039-.367.934-.293 1.922.063.832.184 1.656.363 2.473-.859.785.051 1.074.219 1.438-.523.852.586-.297-.129 2.715-.613-.105 1.035 1.57.031 2.055a3.62 3.62 0 0 0-.547 1.82 3.63 3.63 0 0 0 .426 1.852c-.633 1.82.676.613-.207 2.309-.277 0 .09.879.453 2.461-.625.586-.348.609.219 2.223.539.16-1.172 3.148-.465 3.227 1.133 2.098 1.168.965.32 1.887.688 3.441-.52 3.207-.051 3.262-.164-.848 1.77-1.121.461 1.945.539 2.141.441 3.043-.73 2.789-.945-1.508.625 2.828.629 1.715-.77 1.426-2.23 2.25-.328 3.066-1.086-.172-.742 2.051-.008 1.969-.512 1.457.379-.598-.293 2.109-.875.129-1.34.219-.574 1.68.23.633.672 2.523.359 2.09-.461 1.273.816 2.762.215 3.406-.059 1.867.965 2.734 0 2.738-.727 2.461-.473 2.039 0 2.059-.855 1.301-.742 2.613 0 1.75zm0 0"/></g></svg>