<svg xmlns="http://www.w3.org/2000/svg" width="768" viewBox="0 0 768 37.5" height="37.5" version="1.0"><defs><clipPath id="a"><path d="M 662 0 L 762.945312 0 L 762.945312 18 L 662 18 Z M 662 0"/></clipPath><clipPath id="b"><path d="M 5.050781 0 L 106 0 L 106 18 L 5.050781 18 Z M 5.050781 0"/></clipPath></defs><g clip-path="url(#a)"><path fill="#FBB92C" d="M 663.605469 -59.035156 C 663.375 -59.8125 665.019531 -58.984375 664.863281 -59.035156 C 665.054688 -58.109375 667.3125 -60.0625 668.421875 -59.035156 C 669.085938 -60.152344 669.976562 -59.988281 670.375 -59.378906 C 671.8125 -59.636719 671.429688 -58.6875 673.945312 -59.035156 C 675.710938 -60.667969 676.324219 -60.5625 677.667969 -59.132812 C 678.339844 -59.375 680.335938 -58.445312 681.109375 -59.035156 C 681.816406 -59.949219 682.914062 -61.402344 685.019531 -59.363281 C 686.503906 -58.703125 688.027344 -58.59375 689.589844 -59.035156 C 690.898438 -58.445312 692.265625 -58.074219 693.691406 -57.917969 C 696.191406 -57.476562 697.9375 -57.933594 699.050781 -59.035156 C 701.523438 -59.8125 701.773438 -59.0625 703.296875 -58.957031 C 705.8125 -58.554688 707.011719 -59.113281 709.171875 -59.035156 C 708.980469 -59.234375 710.789062 -58.652344 711.765625 -59.035156 C 712.46875 -59.46875 714.21875 -59.816406 714.375 -59.035156 C 715.453125 -60.898438 716.625 -59.269531 716.992188 -59.035156 C 718.046875 -59.570312 719.085938 -57.527344 719.617188 -59.035156 C 720.867188 -58.789062 721.1875 -59.496094 721.710938 -59.132812 C 722.167969 -58.304688 722.472656 -58.726562 724.503906 -59.710938 C 725.429688 -60.941406 725.882812 -60.074219 726.808594 -60.140625 C 727.6875 -58.988281 729.503906 -59.875 730.070312 -59.03125 C 730.382812 -59.105469 731.574219 -57.003906 732.535156 -57.421875 C 733.554688 -57.964844 734.464844 -57.691406 735.105469 -58.847656 C 735.164062 -61.011719 735.125 -60.21875 737.425781 -59.453125 C 738.695312 -60.542969 738.835938 -58.847656 740.191406 -59.03125 C 741.273438 -58.792969 741.195312 -59.148438 742.015625 -58.742188 C 742.230469 -58.59375 742.464844 -58.488281 742.714844 -58.425781 C 742.96875 -58.359375 743.226562 -58.339844 743.484375 -58.367188 C 743.746094 -58.394531 743.992188 -58.464844 744.226562 -58.578125 C 744.460938 -58.691406 744.667969 -58.84375 744.847656 -59.03125 C 747.898438 -57.546875 747.457031 -59.414062 749.652344 -59.03125 C 751.210938 -57.53125 752.636719 -57.214844 754.265625 -59.03125 C 756.398438 -58.300781 757.21875 -59.550781 758.132812 -59.03125 C 759.496094 -60.808594 759.375 -61.046875 761.777344 -59.214844 C 762.230469 -59.910156 764.0625 -59.894531 765.296875 -59.03125 C 766.367188 -57.488281 766.9375 -59.292969 768.253906 -58.832031 C 768.738281 -59.398438 768.632812 -58.585938 770.820312 -59.03125 C 770.804688 -57.40625 774.082031 -59.339844 774.378906 -59.03125 C 776.019531 -59.691406 775.277344 -58.65625 775.636719 -59.03125 C 775.199219 -61.203125 775.375 -57.195312 775.636719 -57.28125 C 774.683594 -57.695312 775.402344 -56.46875 775.457031 -55.449219 C 775.726562 -56.300781 777.09375 -54.449219 775.636719 -52.480469 C 775.621094 -51.484375 775.519531 -50.5 775.335938 -49.519531 C 776.210938 -50.480469 775.585938 -48.375 775.636719 -45.3125 C 775.078125 -44.792969 775.261719 -43.507812 775.230469 -42.617188 C 775.703125 -40.574219 775.695312 -42.449219 775.628906 -41.050781 C 776.285156 -38.339844 776.015625 -37.96875 775.746094 -38.289062 C 776.03125 -38.785156 774.726562 -37.292969 775.628906 -36.449219 C 775.890625 -38.074219 775.296875 -35.3125 775.617188 -33.832031 C 776.402344 -32.519531 775.171875 -34.445312 775.625 -33.636719 C 776.816406 -32.679688 774.957031 -33.5625 776.035156 -31.769531 C 774.589844 -31.769531 776.035156 -31.964844 775.804688 -29.574219 C 774.273438 -27.652344 775.109375 -30.050781 775.628906 -26.570312 C 774.898438 -25.042969 774.390625 -24.183594 775.5625 -23.570312 C 777.515625 -22.136719 776.652344 -22.300781 775.453125 -21.425781 C 776.277344 -20.214844 776.117188 -21.335938 775.253906 -18.726562 C 776.433594 -20.382812 775.398438 -15.796875 775.632812 -16.355469 C 774.453125 -17.972656 773.992188 -18.332031 775.261719 -14.667969 C 775.503906 -15.140625 776.160156 -13.664062 775.539062 -11.894531 C 775.40625 -10.480469 775.4375 -11.738281 775.65625 -9.613281 C 776.117188 -9.71875 775.984375 -5.984375 775.632812 -6.476562 C 776.289062 -6.6875 775.640625 -3.523438 775.660156 -4.628906 C 775.210938 -6.410156 775.160156 -2.539062 775.671875 -2.253906 C 774.847656 -1.65625 774.539062 0.0820312 775.355469 0.203125 C 775.910156 0.761719 775.492188 -0.183594 775.632812 2.386719 C 776.621094 4.386719 775.292969 3.898438 775.492188 5.9375 C 774.835938 6.535156 774.351562 9.019531 775.632812 9.554688 C 775.875 9.65625 775.824219 10.253906 775.566406 12.242188 C 775.394531 12.105469 775.519531 14.824219 775.632812 14.351562 C 775.703125 17.757812 774.796875 17.269531 775.628906 16.105469 C 776.273438 14.550781 774.691406 17.4375 774.371094 16.105469 C 773.875 16.679688 772.050781 16.207031 772.707031 17.117188 C 773.546875 18.507812 770.441406 15.660156 770.8125 16.105469 C 770.648438 18.199219 768.519531 16.835938 767.945312 15.9375 C 767.300781 16.574219 765.789062 15.476562 765.289062 16.105469 C 763.625 16.941406 762.851562 15.976562 761.113281 16.097656 C 760.433594 15.542969 759.109375 16.636719 758.121094 16.105469 C 756.933594 16.007812 755.796875 15.511719 753.925781 16.234375 C 752.730469 15.03125 750.90625 14.582031 749.636719 16.105469 C 748.53125 17.320312 745.6875 13.714844 745.070312 16.269531 C 743.410156 14.992188 742.890625 15.113281 740.183594 16.105469 C 738.949219 17.335938 737.460938 16.027344 735.742188 16.472656 C 734.949219 16.136719 734.128906 15.921875 733.273438 15.824219 C 732.183594 15.683594 731.113281 15.777344 730.066406 16.105469 C 728.570312 16.445312 728.59375 16.65625 727.085938 15.191406 C 725.613281 14.941406 725.628906 15.398438 725.089844 15.898438 C 724.226562 15.695312 723.351562 15.601562 722.460938 15.609375 C 721.164062 15.097656 720.566406 16.519531 719.617188 16.101562 C 717.484375 15.042969 716.457031 17.054688 714.472656 16.714844 C 712.734375 18.089844 710.652344 17.398438 709.171875 16.105469 C 706.917969 14.632812 705.230469 16.332031 704.050781 16.105469 C 702.875 15.089844 700.371094 17.269531 699.050781 16.105469 C 696.957031 15.480469 694.695312 15.792969 693.433594 15.75 C 691.660156 16.617188 691.429688 17.207031 689.589844 16.105469 C 686.335938 14.949219 686.082031 15.441406 684.828125 16.824219 C 684.566406 15.234375 681.699219 17.09375 681.109375 16.105469 C 679.5625 13.933594 678.332031 15.269531 677.257812 16.476562 C 675.738281 17.410156 675.386719 15.433594 673.945312 16.105469 C 674.269531 14.898438 672.242188 16.265625 671.371094 16.199219 C 669.304688 15.714844 668.820312 15.800781 668.421875 16.105469 C 668.574219 17.324219 667.382812 17.515625 664.863281 16.105469 C 663.988281 15.882812 663.566406 14.117188 663.605469 16.105469 C 662.335938 15.910156 663.347656 15.542969 663.605469 14.355469 C 663.085938 15.921875 663.746094 13.753906 663.785156 12.875 C 663.347656 12.894531 663.714844 12.65625 663.605469 9.558594 C 663.308594 8.792969 664.488281 9.160156 663.875 6.972656 C 664.734375 5.996094 662.785156 5.597656 663.605469 2.390625 C 663.515625 1.335938 662.769531 -0.539062 663.679688 -2.074219 C 664.011719 -2.117188 664.046875 -3.011719 663.972656 -4 C 663.90625 -4.832031 663.785156 -5.65625 663.605469 -6.472656 C 664.464844 -7.257812 663.554688 -7.546875 663.390625 -7.910156 C 663.914062 -8.761719 662.800781 -7.613281 663.519531 -10.625 C 664.128906 -10.519531 662.484375 -12.191406 663.488281 -12.679688 C 663.832031 -13.238281 664.015625 -13.84375 664.035156 -14.5 C 664.054688 -15.15625 663.914062 -15.769531 663.605469 -16.351562 C 664.238281 -18.171875 662.933594 -16.964844 663.816406 -18.660156 C 664.09375 -18.660156 663.726562 -19.539062 663.359375 -21.121094 C 663.988281 -21.707031 663.707031 -21.726562 663.140625 -23.34375 C 662.601562 -23.503906 664.3125 -26.492188 663.605469 -26.570312 C 662.476562 -28.664062 662.441406 -27.535156 663.289062 -28.457031 C 662.601562 -31.898438 663.804688 -31.664062 663.335938 -31.71875 C 663.503906 -30.871094 661.566406 -30.597656 662.878906 -33.660156 C 662.339844 -35.804688 662.433594 -36.707031 663.605469 -36.453125 C 664.554688 -34.945312 662.980469 -39.28125 662.980469 -38.167969 C 663.746094 -39.59375 665.210938 -40.417969 663.304688 -41.234375 C 664.394531 -41.0625 664.050781 -43.28125 663.316406 -43.203125 C 663.824219 -44.660156 662.933594 -42.605469 663.605469 -45.3125 C 664.480469 -45.441406 664.949219 -45.53125 664.179688 -46.992188 C 663.953125 -47.625 663.511719 -49.515625 663.824219 -49.082031 C 664.285156 -50.355469 663.007812 -51.84375 663.605469 -52.488281 C 663.667969 -54.355469 662.640625 -55.222656 663.605469 -55.226562 C 664.332031 -57.6875 664.078125 -57.265625 663.605469 -57.285156 C 664.464844 -58.585938 664.351562 -59.898438 663.605469 -59.035156 Z M 663.605469 -59.035156"/></g><path fill="#FBB92C" d="M 552.507812 -59.035156 C 552.277344 -59.8125 553.921875 -58.984375 553.765625 -59.035156 C 553.957031 -58.109375 556.214844 -60.0625 557.320312 -59.035156 C 557.984375 -60.152344 558.875 -59.988281 559.277344 -59.378906 C 560.714844 -59.636719 560.328125 -58.6875 562.84375 -59.035156 C 564.609375 -60.667969 565.226562 -60.5625 566.570312 -59.132812 C 567.242188 -59.375 569.234375 -58.445312 570.011719 -59.035156 C 570.714844 -59.949219 571.8125 -61.402344 573.917969 -59.363281 C 575.402344 -58.703125 576.925781 -58.59375 578.488281 -59.035156 C 579.796875 -58.445312 581.164062 -58.074219 582.59375 -57.917969 C 585.089844 -57.476562 586.835938 -57.933594 587.953125 -59.035156 C 590.421875 -59.8125 590.675781 -59.0625 592.195312 -58.957031 C 594.710938 -58.554688 595.910156 -59.113281 598.070312 -59.035156 C 597.882812 -59.234375 599.691406 -58.652344 600.664062 -59.035156 C 601.371094 -59.46875 603.117188 -59.816406 603.273438 -59.035156 C 604.355469 -60.898438 605.527344 -59.269531 605.894531 -59.035156 C 606.949219 -59.570312 607.988281 -57.527344 608.519531 -59.035156 C 609.769531 -58.789062 610.089844 -59.496094 610.613281 -59.132812 C 611.066406 -58.304688 611.371094 -58.726562 613.402344 -59.710938 C 614.332031 -60.941406 614.785156 -60.074219 615.710938 -60.140625 C 616.589844 -58.988281 618.402344 -59.875 618.972656 -59.03125 C 619.285156 -59.105469 620.476562 -57.003906 621.433594 -57.421875 C 622.453125 -57.964844 623.367188 -57.691406 624.007812 -58.847656 C 624.0625 -61.011719 624.023438 -60.21875 626.328125 -59.453125 C 627.59375 -60.542969 627.738281 -58.847656 629.089844 -59.03125 C 630.171875 -58.792969 630.09375 -59.148438 630.914062 -58.742188 C 631.128906 -58.59375 631.363281 -58.488281 631.617188 -58.425781 C 631.867188 -58.359375 632.125 -58.339844 632.386719 -58.367188 C 632.644531 -58.394531 632.890625 -58.464844 633.125 -58.578125 C 633.359375 -58.691406 633.570312 -58.84375 633.75 -59.03125 C 636.800781 -57.546875 636.355469 -59.414062 638.554688 -59.03125 C 640.113281 -57.53125 641.539062 -57.214844 643.167969 -59.03125 C 645.296875 -58.300781 646.117188 -59.550781 647.03125 -59.03125 C 648.394531 -60.808594 648.273438 -61.046875 650.679688 -59.214844 C 651.128906 -59.910156 652.960938 -59.894531 654.199219 -59.03125 C 655.269531 -57.488281 655.835938 -59.292969 657.15625 -58.832031 C 657.640625 -59.398438 657.53125 -58.585938 659.722656 -59.03125 C 659.703125 -57.40625 662.980469 -59.339844 663.277344 -59.03125 C 664.917969 -59.691406 664.175781 -58.65625 664.535156 -59.03125 C 664.101562 -61.203125 664.277344 -57.195312 664.535156 -57.28125 C 663.582031 -57.695312 664.304688 -56.46875 664.359375 -55.449219 C 664.625 -56.300781 665.992188 -54.449219 664.535156 -52.480469 C 664.519531 -51.484375 664.421875 -50.5 664.238281 -49.519531 C 665.113281 -50.480469 664.484375 -48.375 664.535156 -45.3125 C 663.980469 -44.792969 664.164062 -43.507812 664.132812 -42.617188 C 664.601562 -40.574219 664.597656 -42.449219 664.53125 -41.050781 C 665.1875 -38.339844 664.914062 -37.96875 664.648438 -38.289062 C 664.929688 -38.785156 663.628906 -37.292969 664.53125 -36.449219 C 664.789062 -38.074219 664.195312 -35.3125 664.515625 -33.832031 C 665.304688 -32.519531 664.074219 -34.445312 664.527344 -33.636719 C 665.714844 -32.679688 663.859375 -33.5625 664.933594 -31.769531 C 663.492188 -31.769531 664.933594 -31.964844 664.707031 -29.574219 C 663.175781 -27.652344 664.007812 -30.050781 664.53125 -26.570312 C 663.800781 -25.042969 663.292969 -24.183594 664.464844 -23.570312 C 666.414062 -22.136719 665.550781 -22.300781 664.355469 -21.425781 C 665.175781 -20.214844 665.019531 -21.335938 664.15625 -18.726562 C 665.335938 -20.382812 664.296875 -15.796875 664.53125 -16.355469 C 663.355469 -17.972656 662.894531 -18.332031 664.164062 -14.667969 C 664.40625 -15.140625 665.058594 -13.664062 664.4375 -11.894531 C 664.308594 -10.480469 664.339844 -11.738281 664.554688 -9.613281 C 665.019531 -9.71875 664.882812 -5.984375 664.53125 -6.476562 C 665.191406 -6.6875 664.542969 -3.523438 664.558594 -4.628906 C 664.113281 -6.410156 664.058594 -2.539062 664.574219 -2.253906 C 663.746094 -1.65625 663.4375 0.0820312 664.253906 0.203125 C 664.8125 0.761719 664.390625 -0.183594 664.53125 2.386719 C 665.519531 4.386719 664.191406 3.898438 664.390625 5.9375 C 663.734375 6.535156 663.253906 9.019531 664.53125 9.554688 C 664.777344 9.65625 664.722656 10.253906 664.464844 12.242188 C 664.296875 12.105469 664.417969 14.824219 664.53125 14.351562 C 664.601562 17.757812 663.699219 17.269531 664.53125 16.105469 C 665.175781 14.550781 663.589844 17.4375 663.273438 16.105469 C 662.773438 16.679688 660.953125 16.207031 661.609375 17.117188 C 662.449219 18.507812 659.339844 15.660156 659.714844 16.105469 C 659.550781 18.199219 657.421875 16.835938 656.847656 15.9375 C 656.203125 16.574219 654.6875 15.476562 654.191406 16.105469 C 652.527344 16.941406 651.753906 15.976562 650.015625 16.097656 C 649.332031 15.542969 648.007812 16.636719 647.023438 16.105469 C 645.835938 16.007812 644.695312 15.511719 642.828125 16.234375 C 641.628906 15.03125 639.808594 14.582031 638.539062 16.105469 C 637.433594 17.320312 634.585938 13.714844 633.96875 16.269531 C 632.3125 14.992188 631.792969 15.113281 629.085938 16.105469 C 627.847656 17.335938 626.363281 16.027344 624.644531 16.472656 C 623.851562 16.136719 623.027344 15.921875 622.171875 15.824219 C 621.082031 15.683594 620.015625 15.777344 618.964844 16.105469 C 617.46875 16.445312 617.496094 16.65625 615.984375 15.191406 C 614.515625 14.941406 614.527344 15.398438 613.992188 15.898438 C 613.125 15.695312 612.25 15.601562 611.363281 15.609375 C 610.066406 15.097656 609.46875 16.519531 608.519531 16.101562 C 606.386719 15.042969 605.359375 17.054688 603.371094 16.714844 C 601.636719 18.089844 599.554688 17.398438 598.070312 16.105469 C 595.820312 14.632812 594.128906 16.332031 592.949219 16.105469 C 591.773438 15.089844 589.273438 17.269531 587.953125 16.105469 C 585.859375 15.480469 583.59375 15.792969 582.332031 15.75 C 580.558594 16.617188 580.332031 17.207031 578.488281 16.105469 C 575.238281 14.949219 574.980469 15.441406 573.726562 16.824219 C 573.464844 15.234375 570.597656 17.09375 570.011719 16.105469 C 568.464844 13.933594 567.234375 15.269531 566.15625 16.476562 C 564.636719 17.410156 564.289062 15.433594 562.84375 16.105469 C 563.167969 14.898438 561.144531 16.265625 560.273438 16.199219 C 558.207031 15.714844 557.71875 15.800781 557.320312 16.105469 C 557.476562 17.324219 556.28125 17.515625 553.765625 16.105469 C 552.890625 15.882812 552.46875 14.117188 552.507812 16.105469 C 551.238281 15.910156 552.25 15.542969 552.507812 14.355469 C 551.988281 15.921875 552.644531 13.753906 552.6875 12.875 C 552.246094 12.894531 552.617188 12.65625 552.507812 9.558594 C 552.207031 8.792969 553.386719 9.160156 552.773438 6.972656 C 553.632812 5.996094 551.6875 5.597656 552.507812 2.390625 C 552.414062 1.335938 551.667969 -0.539062 552.582031 -2.074219 C 552.914062 -2.117188 552.945312 -3.011719 552.871094 -4 C 552.808594 -4.832031 552.6875 -5.65625 552.507812 -6.472656 C 553.367188 -7.257812 552.457031 -7.546875 552.292969 -7.910156 C 552.8125 -8.761719 551.703125 -7.613281 552.417969 -10.625 C 553.03125 -10.519531 551.382812 -12.191406 552.386719 -12.679688 C 552.730469 -13.238281 552.914062 -13.84375 552.933594 -14.5 C 552.957031 -15.15625 552.8125 -15.769531 552.507812 -16.351562 C 553.140625 -18.171875 551.832031 -16.964844 552.714844 -18.660156 C 552.992188 -18.660156 552.625 -19.539062 552.261719 -21.121094 C 552.886719 -21.707031 552.609375 -21.726562 552.042969 -23.34375 C 551.503906 -23.503906 553.214844 -26.492188 552.507812 -26.570312 C 551.375 -28.664062 551.339844 -27.535156 552.1875 -28.457031 C 551.5 -31.898438 552.707031 -31.664062 552.238281 -31.71875 C 552.402344 -30.871094 550.46875 -30.597656 551.777344 -33.660156 C 551.238281 -35.804688 551.335938 -36.707031 552.507812 -36.453125 C 553.453125 -34.945312 551.882812 -39.28125 551.878906 -38.167969 C 552.648438 -39.59375 554.109375 -40.417969 552.207031 -41.234375 C 553.292969 -41.0625 552.949219 -43.28125 552.214844 -43.203125 C 552.726562 -44.660156 551.835938 -42.605469 552.507812 -45.3125 C 553.382812 -45.441406 553.847656 -45.53125 553.082031 -46.992188 C 552.851562 -47.625 552.410156 -49.515625 552.726562 -49.082031 C 553.183594 -50.355469 551.90625 -51.84375 552.507812 -52.488281 C 552.566406 -54.355469 551.542969 -55.222656 552.507812 -55.226562 C 553.234375 -57.6875 552.980469 -57.265625 552.507812 -57.285156 C 553.363281 -58.585938 553.25 -59.898438 552.507812 -59.035156 Z M 552.507812 -59.035156"/><path fill="#FBB92C" d="M 445.6875 -59.035156 C 445.457031 -59.8125 447.101562 -58.984375 446.945312 -59.035156 C 447.136719 -58.109375 449.394531 -60.0625 450.5 -59.035156 C 451.164062 -60.152344 452.054688 -59.988281 452.457031 -59.378906 C 453.890625 -59.636719 453.507812 -58.6875 456.023438 -59.035156 C 457.789062 -60.667969 458.40625 -60.5625 459.746094 -59.132812 C 460.417969 -59.375 462.414062 -58.445312 463.191406 -59.035156 C 463.894531 -59.949219 464.992188 -61.402344 467.097656 -59.363281 C 468.582031 -58.703125 470.105469 -58.59375 471.667969 -59.035156 C 472.976562 -58.445312 474.34375 -58.074219 475.769531 -57.917969 C 478.269531 -57.476562 480.015625 -57.933594 481.132812 -59.035156 C 483.601562 -59.8125 483.851562 -59.0625 485.375 -58.957031 C 487.890625 -58.554688 489.089844 -59.113281 491.25 -59.035156 C 491.0625 -59.234375 492.871094 -58.652344 493.84375 -59.035156 C 494.546875 -59.46875 496.296875 -59.816406 496.453125 -59.035156 C 497.53125 -60.898438 498.703125 -59.269531 499.074219 -59.035156 C 500.125 -59.570312 501.167969 -57.527344 501.699219 -59.035156 C 502.949219 -58.789062 503.269531 -59.496094 503.792969 -59.132812 C 504.246094 -58.304688 504.550781 -58.726562 506.582031 -59.710938 C 507.511719 -60.941406 507.960938 -60.074219 508.890625 -60.140625 C 509.765625 -58.988281 511.582031 -59.875 512.152344 -59.03125 C 512.464844 -59.105469 513.65625 -57.003906 514.613281 -57.421875 C 515.632812 -57.964844 516.546875 -57.691406 517.183594 -58.847656 C 517.242188 -61.011719 517.203125 -60.21875 519.507812 -59.453125 C 520.773438 -60.542969 520.917969 -58.847656 522.269531 -59.03125 C 523.351562 -58.792969 523.273438 -59.148438 524.09375 -58.742188 C 524.308594 -58.59375 524.542969 -58.488281 524.796875 -58.425781 C 525.046875 -58.359375 525.304688 -58.339844 525.5625 -58.367188 C 525.824219 -58.394531 526.070312 -58.464844 526.304688 -58.578125 C 526.539062 -58.691406 526.746094 -58.84375 526.929688 -59.03125 C 529.980469 -57.546875 529.535156 -59.414062 531.734375 -59.03125 C 533.292969 -57.53125 534.71875 -57.214844 536.347656 -59.03125 C 538.476562 -58.300781 539.296875 -59.550781 540.210938 -59.03125 C 541.574219 -60.808594 541.453125 -61.046875 543.859375 -59.214844 C 544.308594 -59.910156 546.140625 -59.894531 547.378906 -59.03125 C 548.449219 -57.488281 549.015625 -59.292969 550.335938 -58.832031 C 550.820312 -59.398438 550.710938 -58.585938 552.902344 -59.03125 C 552.882812 -57.40625 556.160156 -59.339844 556.457031 -59.03125 C 558.097656 -59.691406 557.355469 -58.65625 557.714844 -59.03125 C 557.28125 -61.203125 557.453125 -57.195312 557.714844 -57.28125 C 556.761719 -57.695312 557.484375 -56.46875 557.539062 -55.449219 C 557.804688 -56.300781 559.171875 -54.449219 557.714844 -52.480469 C 557.699219 -51.484375 557.601562 -50.5 557.414062 -49.519531 C 558.292969 -50.480469 557.664062 -48.375 557.714844 -45.3125 C 557.160156 -44.792969 557.34375 -43.507812 557.3125 -42.617188 C 557.78125 -40.574219 557.777344 -42.449219 557.710938 -41.050781 C 558.367188 -38.339844 558.09375 -37.96875 557.828125 -38.289062 C 558.109375 -38.785156 556.804688 -37.292969 557.710938 -36.449219 C 557.96875 -38.074219 557.375 -35.3125 557.695312 -33.832031 C 558.484375 -32.519531 557.253906 -34.445312 557.707031 -33.636719 C 558.894531 -32.679688 557.039062 -33.5625 558.113281 -31.769531 C 556.671875 -31.769531 558.113281 -31.964844 557.886719 -29.574219 C 556.355469 -27.652344 557.1875 -30.050781 557.710938 -26.570312 C 556.980469 -25.042969 556.472656 -24.183594 557.640625 -23.570312 C 559.59375 -22.136719 558.730469 -22.300781 557.535156 -21.425781 C 558.355469 -20.214844 558.199219 -21.335938 557.335938 -18.726562 C 558.515625 -20.382812 557.476562 -15.796875 557.710938 -16.355469 C 556.535156 -17.972656 556.074219 -18.332031 557.34375 -14.667969 C 557.585938 -15.140625 558.238281 -13.664062 557.617188 -11.894531 C 557.488281 -10.480469 557.515625 -11.738281 557.734375 -9.613281 C 558.199219 -9.71875 558.0625 -5.984375 557.710938 -6.476562 C 558.367188 -6.6875 557.722656 -3.523438 557.738281 -4.628906 C 557.292969 -6.410156 557.238281 -2.539062 557.753906 -2.253906 C 556.925781 -1.65625 556.617188 0.0820312 557.433594 0.203125 C 557.992188 0.761719 557.570312 -0.183594 557.710938 2.386719 C 558.699219 4.386719 557.371094 3.898438 557.570312 5.9375 C 556.914062 6.535156 556.433594 9.019531 557.710938 9.554688 C 557.957031 9.65625 557.902344 10.253906 557.644531 12.242188 C 557.476562 12.105469 557.597656 14.824219 557.710938 14.351562 C 557.78125 17.757812 556.878906 17.269531 557.710938 16.105469 C 558.351562 14.550781 556.769531 17.4375 556.453125 16.105469 C 555.953125 16.679688 554.132812 16.207031 554.789062 17.117188 C 555.625 18.507812 552.519531 15.660156 552.894531 16.105469 C 552.726562 18.199219 550.601562 16.835938 550.027344 15.9375 C 549.382812 16.574219 547.867188 15.476562 547.371094 16.105469 C 545.707031 16.941406 544.933594 15.976562 543.191406 16.097656 C 542.511719 15.542969 541.1875 16.636719 540.203125 16.105469 C 539.015625 16.007812 537.875 15.511719 536.003906 16.234375 C 534.808594 15.03125 532.988281 14.582031 531.71875 16.105469 C 530.609375 17.320312 527.765625 13.714844 527.148438 16.269531 C 525.492188 14.992188 524.972656 15.113281 522.265625 16.105469 C 521.027344 17.335938 519.542969 16.027344 517.824219 16.472656 C 517.03125 16.136719 516.207031 15.921875 515.351562 15.824219 C 514.261719 15.683594 513.195312 15.777344 512.144531 16.105469 C 510.648438 16.445312 510.675781 16.65625 509.164062 15.191406 C 507.695312 14.941406 507.707031 15.398438 507.167969 15.898438 C 506.304688 15.695312 505.429688 15.601562 504.542969 15.609375 C 503.246094 15.097656 502.648438 16.519531 501.699219 16.101562 C 499.566406 15.042969 498.539062 17.054688 496.550781 16.714844 C 494.816406 18.089844 492.734375 17.398438 491.25 16.105469 C 489 14.632812 487.308594 16.332031 486.128906 16.105469 C 484.953125 15.089844 482.453125 17.269531 481.132812 16.105469 C 479.039062 15.480469 476.773438 15.792969 475.511719 15.75 C 473.738281 16.617188 473.507812 17.207031 471.667969 16.105469 C 468.417969 14.949219 468.160156 15.441406 466.90625 16.824219 C 466.644531 15.234375 463.777344 17.09375 463.191406 16.105469 C 461.640625 13.933594 460.410156 15.269531 459.335938 16.476562 C 457.816406 17.410156 457.46875 15.433594 456.023438 16.105469 C 456.347656 14.898438 454.320312 16.265625 453.453125 16.199219 C 451.386719 15.714844 450.898438 15.800781 450.5 16.105469 C 450.65625 17.324219 449.460938 17.515625 446.945312 16.105469 C 446.070312 15.882812 445.648438 14.117188 445.6875 16.105469 C 444.417969 15.910156 445.425781 15.542969 445.6875 14.355469 C 445.167969 15.921875 445.824219 13.753906 445.867188 12.875 C 445.425781 12.894531 445.796875 12.65625 445.6875 9.558594 C 445.386719 8.792969 446.566406 9.160156 445.953125 6.972656 C 446.8125 5.996094 444.867188 5.597656 445.6875 2.390625 C 445.59375 1.335938 444.847656 -0.539062 445.757812 -2.074219 C 446.089844 -2.117188 446.125 -3.011719 446.050781 -4 C 445.988281 -4.832031 445.867188 -5.65625 445.6875 -6.472656 C 446.546875 -7.257812 445.636719 -7.546875 445.46875 -7.910156 C 445.992188 -8.761719 444.882812 -7.613281 445.597656 -10.625 C 446.210938 -10.519531 444.5625 -12.191406 445.566406 -12.679688 C 445.910156 -13.238281 446.09375 -13.84375 446.113281 -14.5 C 446.136719 -15.15625 445.992188 -15.769531 445.6875 -16.351562 C 446.320312 -18.171875 445.011719 -16.964844 445.894531 -18.660156 C 446.171875 -18.660156 445.804688 -19.539062 445.441406 -21.121094 C 446.066406 -21.707031 445.789062 -21.726562 445.222656 -23.34375 C 444.683594 -23.503906 446.394531 -26.492188 445.6875 -26.570312 C 444.554688 -28.664062 444.519531 -27.535156 445.367188 -28.457031 C 444.679688 -31.898438 445.886719 -31.664062 445.417969 -31.71875 C 445.582031 -30.871094 443.644531 -30.597656 444.957031 -33.660156 C 444.417969 -35.804688 444.515625 -36.707031 445.6875 -36.453125 C 446.632812 -34.945312 445.058594 -39.28125 445.058594 -38.167969 C 445.828125 -39.59375 447.289062 -40.417969 445.386719 -41.234375 C 446.472656 -41.0625 446.128906 -43.28125 445.394531 -43.203125 C 445.902344 -44.660156 445.011719 -42.605469 445.6875 -45.3125 C 446.5625 -45.441406 447.027344 -45.53125 446.261719 -46.992188 C 446.03125 -47.625 445.589844 -49.515625 445.902344 -49.082031 C 446.363281 -50.355469 445.085938 -51.84375 445.6875 -52.488281 C 445.746094 -54.355469 444.722656 -55.222656 445.6875 -55.226562 C 446.414062 -57.6875 446.160156 -57.265625 445.6875 -57.285156 C 446.542969 -58.585938 446.429688 -59.898438 445.6875 -59.035156 Z M 445.6875 -59.035156"/><path fill="#FBB92C" d="M 341.875 -59.035156 C 341.644531 -59.8125 343.289062 -58.984375 343.132812 -59.035156 C 343.324219 -58.109375 345.582031 -60.0625 346.6875 -59.035156 C 347.355469 -60.152344 348.246094 -59.988281 348.644531 -59.378906 C 350.082031 -59.636719 349.695312 -58.6875 352.214844 -59.035156 C 353.976562 -60.667969 354.59375 -60.5625 355.9375 -59.132812 C 356.609375 -59.375 358.601562 -58.445312 359.378906 -59.035156 C 360.085938 -59.949219 361.179688 -61.402344 363.289062 -59.363281 C 364.769531 -58.703125 366.292969 -58.59375 367.859375 -59.035156 C 369.164062 -58.445312 370.53125 -58.074219 371.960938 -57.917969 C 374.460938 -57.476562 376.207031 -57.933594 377.320312 -59.035156 C 379.789062 -59.8125 380.042969 -59.0625 381.566406 -58.957031 C 384.078125 -58.554688 385.28125 -59.113281 387.441406 -59.035156 C 387.25 -59.234375 389.058594 -58.652344 390.03125 -59.035156 C 390.738281 -59.46875 392.484375 -59.816406 392.640625 -59.035156 C 393.722656 -60.898438 394.894531 -59.269531 395.261719 -59.035156 C 396.316406 -59.570312 397.355469 -57.527344 397.886719 -59.035156 C 399.136719 -58.789062 399.457031 -59.496094 399.980469 -59.132812 C 400.4375 -58.304688 400.738281 -58.726562 402.773438 -59.710938 C 403.699219 -60.941406 404.152344 -60.074219 405.078125 -60.140625 C 405.957031 -58.988281 407.769531 -59.875 408.339844 -59.03125 C 408.652344 -59.105469 409.84375 -57.003906 410.800781 -57.421875 C 411.824219 -57.964844 412.734375 -57.691406 413.375 -58.847656 C 413.429688 -61.011719 413.394531 -60.21875 415.695312 -59.453125 C 416.960938 -60.542969 417.105469 -58.847656 418.457031 -59.03125 C 419.542969 -58.792969 419.460938 -59.148438 420.28125 -58.742188 C 420.496094 -58.59375 420.730469 -58.488281 420.984375 -58.425781 C 421.238281 -58.359375 421.492188 -58.339844 421.753906 -58.367188 C 422.011719 -58.394531 422.261719 -58.464844 422.496094 -58.578125 C 422.730469 -58.691406 422.9375 -58.84375 423.117188 -59.03125 C 426.167969 -57.546875 425.726562 -59.414062 427.921875 -59.03125 C 429.480469 -57.53125 430.90625 -57.214844 432.535156 -59.03125 C 434.664062 -58.300781 435.484375 -59.550781 436.402344 -59.03125 C 437.765625 -60.808594 437.640625 -61.046875 440.046875 -59.214844 C 440.496094 -59.910156 442.332031 -59.894531 443.566406 -59.03125 C 444.636719 -57.488281 445.203125 -59.292969 446.523438 -58.832031 C 447.007812 -59.398438 446.902344 -58.585938 449.089844 -59.03125 C 449.070312 -57.40625 452.347656 -59.339844 452.644531 -59.03125 C 454.289062 -59.691406 453.542969 -58.65625 453.902344 -59.03125 C 453.46875 -61.203125 453.644531 -57.195312 453.902344 -57.28125 C 452.953125 -57.695312 453.671875 -56.46875 453.726562 -55.449219 C 453.992188 -56.300781 455.363281 -54.449219 453.902344 -52.480469 C 453.890625 -51.484375 453.789062 -50.5 453.605469 -49.519531 C 454.480469 -50.480469 453.855469 -48.375 453.902344 -45.3125 C 453.347656 -44.792969 453.53125 -43.507812 453.5 -42.617188 C 453.96875 -40.574219 453.964844 -42.449219 453.898438 -41.050781 C 454.554688 -38.339844 454.28125 -37.96875 454.015625 -38.289062 C 454.296875 -38.785156 452.996094 -37.292969 453.898438 -36.449219 C 454.15625 -38.074219 453.5625 -35.3125 453.886719 -33.832031 C 454.671875 -32.519531 453.441406 -34.445312 453.894531 -33.636719 C 455.085938 -32.679688 453.226562 -33.5625 454.300781 -31.769531 C 452.859375 -31.769531 454.300781 -31.964844 454.074219 -29.574219 C 452.542969 -27.652344 453.375 -30.050781 453.898438 -26.570312 C 453.167969 -25.042969 452.660156 -24.183594 453.832031 -23.570312 C 455.785156 -22.136719 454.921875 -22.300781 453.722656 -21.425781 C 454.542969 -20.214844 454.386719 -21.335938 453.523438 -18.726562 C 454.703125 -20.382812 453.667969 -15.796875 453.898438 -16.355469 C 452.722656 -17.972656 452.261719 -18.332031 453.53125 -14.667969 C 453.773438 -15.140625 454.429688 -13.664062 453.804688 -11.894531 C 453.675781 -10.480469 453.707031 -11.738281 453.925781 -9.613281 C 454.386719 -9.71875 454.25 -5.984375 453.898438 -6.476562 C 454.558594 -6.6875 453.910156 -3.523438 453.925781 -4.628906 C 453.480469 -6.410156 453.429688 -2.539062 453.941406 -2.253906 C 453.117188 -1.65625 452.804688 0.0820312 453.621094 0.203125 C 454.179688 0.761719 453.761719 -0.183594 453.898438 2.386719 C 454.890625 4.386719 453.558594 3.898438 453.757812 5.9375 C 453.105469 6.535156 452.621094 9.019531 453.898438 9.554688 C 454.144531 9.65625 454.09375 10.253906 453.832031 12.242188 C 453.664062 12.105469 453.789062 14.824219 453.898438 14.351562 C 453.96875 17.757812 453.066406 17.269531 453.898438 16.105469 C 454.542969 14.550781 452.957031 17.4375 452.640625 16.105469 C 452.144531 16.679688 450.320312 16.207031 450.976562 17.117188 C 451.816406 18.507812 448.710938 15.660156 449.082031 16.105469 C 448.917969 18.199219 446.789062 16.835938 446.214844 15.9375 C 445.570312 16.574219 444.058594 15.476562 443.558594 16.105469 C 441.894531 16.941406 441.121094 15.976562 439.382812 16.097656 C 438.699219 15.542969 437.378906 16.636719 436.390625 16.105469 C 435.203125 16.007812 434.0625 15.511719 432.195312 16.234375 C 431 15.03125 429.175781 14.582031 427.90625 16.105469 C 426.800781 17.320312 423.957031 13.714844 423.339844 16.269531 C 421.679688 14.992188 421.160156 15.113281 418.453125 16.105469 C 417.214844 17.335938 415.730469 16.027344 414.011719 16.472656 C 413.21875 16.136719 412.394531 15.921875 411.542969 15.824219 C 410.453125 15.683594 409.382812 15.777344 408.335938 16.105469 C 406.839844 16.445312 406.863281 16.65625 405.351562 15.191406 C 403.882812 14.941406 403.894531 15.398438 403.359375 15.898438 C 402.496094 15.695312 401.617188 15.601562 400.730469 15.609375 C 399.433594 15.097656 398.835938 16.519531 397.886719 16.101562 C 395.753906 15.042969 394.726562 17.054688 392.742188 16.714844 C 391.003906 18.089844 388.921875 17.398438 387.441406 16.105469 C 385.1875 14.632812 383.5 16.332031 382.320312 16.105469 C 381.144531 15.089844 378.640625 17.269531 377.320312 16.105469 C 375.226562 15.480469 372.960938 15.792969 371.699219 15.75 C 369.929688 16.617188 369.699219 17.207031 367.859375 16.105469 C 364.605469 14.949219 364.351562 15.441406 363.09375 16.824219 C 362.832031 15.234375 359.96875 17.09375 359.378906 16.105469 C 357.832031 13.933594 356.601562 15.269531 355.523438 16.476562 C 354.007812 17.410156 353.65625 15.433594 352.214844 16.105469 C 352.535156 14.898438 350.511719 16.265625 349.640625 16.199219 C 347.574219 15.714844 347.089844 15.800781 346.6875 16.105469 C 346.84375 17.324219 345.648438 17.515625 343.132812 16.105469 C 342.257812 15.882812 341.835938 14.117188 341.875 16.105469 C 340.605469 15.910156 341.617188 15.542969 341.875 14.355469 C 341.355469 15.921875 342.011719 13.753906 342.054688 12.875 C 341.617188 12.894531 341.984375 12.65625 341.875 9.558594 C 341.578125 8.792969 342.753906 9.160156 342.140625 6.972656 C 343 5.996094 341.054688 5.597656 341.875 2.390625 C 341.78125 1.335938 341.035156 -0.539062 341.949219 -2.074219 C 342.28125 -2.117188 342.3125 -3.011719 342.238281 -4 C 342.175781 -4.832031 342.054688 -5.65625 341.875 -6.472656 C 342.734375 -7.257812 341.824219 -7.546875 341.660156 -7.910156 C 342.183594 -8.761719 341.070312 -7.613281 341.785156 -10.625 C 342.398438 -10.519531 340.75 -12.191406 341.757812 -12.679688 C 342.101562 -13.238281 342.28125 -13.84375 342.304688 -14.5 C 342.324219 -15.15625 342.183594 -15.769531 341.875 -16.351562 C 342.507812 -18.171875 341.203125 -16.964844 342.082031 -18.660156 C 342.363281 -18.660156 341.992188 -19.539062 341.628906 -21.121094 C 342.257812 -21.707031 341.976562 -21.726562 341.410156 -23.34375 C 340.871094 -23.503906 342.582031 -26.492188 341.875 -26.570312 C 340.742188 -28.664062 340.710938 -27.535156 341.554688 -28.457031 C 340.871094 -31.898438 342.074219 -31.664062 341.605469 -31.71875 C 341.773438 -30.871094 339.835938 -30.597656 341.144531 -33.660156 C 340.605469 -35.804688 340.703125 -36.707031 341.875 -36.453125 C 342.820312 -34.945312 341.25 -39.28125 341.246094 -38.167969 C 342.015625 -39.59375 343.480469 -40.417969 341.574219 -41.234375 C 342.664062 -41.0625 342.316406 -43.28125 341.585938 -43.203125 C 342.09375 -44.660156 341.203125 -42.605469 341.875 -45.3125 C 342.75 -45.441406 343.214844 -45.53125 342.449219 -46.992188 C 342.21875 -47.625 341.777344 -49.515625 342.09375 -49.082031 C 342.554688 -50.355469 341.273438 -51.84375 341.875 -52.488281 C 341.9375 -54.355469 340.910156 -55.222656 341.875 -55.226562 C 342.601562 -57.6875 342.347656 -57.265625 341.875 -57.285156 C 342.730469 -58.585938 342.621094 -59.898438 341.875 -59.035156 Z M 341.875 -59.035156"/><path fill="#FBB92C" d="M 237.101562 -59.035156 C 236.871094 -59.8125 238.515625 -58.984375 238.359375 -59.035156 C 238.550781 -58.109375 240.808594 -60.0625 241.914062 -59.035156 C 242.578125 -60.152344 243.46875 -59.988281 243.871094 -59.378906 C 245.308594 -59.636719 244.921875 -58.6875 247.4375 -59.035156 C 249.203125 -60.667969 249.820312 -60.5625 251.160156 -59.132812 C 251.835938 -59.375 253.828125 -58.445312 254.605469 -59.035156 C 255.308594 -59.949219 256.40625 -61.402344 258.511719 -59.363281 C 259.996094 -58.703125 261.519531 -58.59375 263.082031 -59.035156 C 264.390625 -58.445312 265.757812 -58.074219 267.183594 -57.917969 C 269.683594 -57.476562 271.429688 -57.933594 272.546875 -59.035156 C 275.015625 -59.8125 275.265625 -59.0625 276.789062 -58.957031 C 279.304688 -58.554688 280.503906 -59.113281 282.664062 -59.035156 C 282.476562 -59.234375 284.285156 -58.652344 285.257812 -59.035156 C 285.964844 -59.46875 287.710938 -59.816406 287.867188 -59.035156 C 288.949219 -60.898438 290.121094 -59.269531 290.488281 -59.035156 C 291.542969 -59.570312 292.582031 -57.527344 293.113281 -59.035156 C 294.363281 -58.789062 294.683594 -59.496094 295.207031 -59.132812 C 295.660156 -58.304688 295.964844 -58.726562 297.996094 -59.710938 C 298.925781 -60.941406 299.375 -60.074219 300.304688 -60.140625 C 301.183594 -58.988281 302.996094 -59.875 303.566406 -59.03125 C 303.878906 -59.105469 305.070312 -57.003906 306.027344 -57.421875 C 307.046875 -57.964844 307.960938 -57.691406 308.597656 -58.847656 C 308.65625 -61.011719 308.617188 -60.21875 310.921875 -59.453125 C 312.1875 -60.542969 312.332031 -58.847656 313.683594 -59.03125 C 314.765625 -58.792969 314.6875 -59.148438 315.507812 -58.742188 C 315.722656 -58.59375 315.957031 -58.488281 316.210938 -58.425781 C 316.460938 -58.359375 316.71875 -58.339844 316.976562 -58.367188 C 317.238281 -58.394531 317.484375 -58.464844 317.71875 -58.578125 C 317.953125 -58.691406 318.164062 -58.84375 318.34375 -59.03125 C 321.394531 -57.546875 320.949219 -59.414062 323.148438 -59.03125 C 324.707031 -57.53125 326.132812 -57.214844 327.761719 -59.03125 C 329.890625 -58.300781 330.710938 -59.550781 331.625 -59.03125 C 332.988281 -60.808594 332.867188 -61.046875 335.273438 -59.214844 C 335.722656 -59.910156 337.554688 -59.894531 338.792969 -59.03125 C 339.863281 -57.488281 340.429688 -59.292969 341.75 -58.832031 C 342.234375 -59.398438 342.125 -58.585938 344.316406 -59.03125 C 344.296875 -57.40625 347.574219 -59.339844 347.871094 -59.03125 C 349.511719 -59.691406 348.769531 -58.65625 349.128906 -59.03125 C 348.695312 -61.203125 348.867188 -57.195312 349.128906 -57.28125 C 348.175781 -57.695312 348.898438 -56.46875 348.953125 -55.449219 C 349.21875 -56.300781 350.585938 -54.449219 349.128906 -52.480469 C 349.113281 -51.484375 349.015625 -50.5 348.832031 -49.519531 C 349.707031 -50.480469 349.078125 -48.375 349.128906 -45.3125 C 348.574219 -44.792969 348.757812 -43.507812 348.726562 -42.617188 C 349.195312 -40.574219 349.191406 -42.449219 349.125 -41.050781 C 349.78125 -38.339844 349.507812 -37.96875 349.242188 -38.289062 C 349.523438 -38.785156 348.222656 -37.292969 349.125 -36.449219 C 349.382812 -38.074219 348.789062 -35.3125 349.109375 -33.832031 C 349.898438 -32.519531 348.667969 -34.445312 349.121094 -33.636719 C 350.308594 -32.679688 348.453125 -33.5625 349.527344 -31.769531 C 348.085938 -31.769531 349.527344 -31.964844 349.300781 -29.574219 C 347.769531 -27.652344 348.601562 -30.050781 349.125 -26.570312 C 348.394531 -25.042969 347.886719 -24.183594 349.054688 -23.570312 C 351.007812 -22.136719 350.144531 -22.300781 348.949219 -21.425781 C 349.769531 -20.214844 349.613281 -21.335938 348.75 -18.726562 C 349.929688 -20.382812 348.890625 -15.796875 349.125 -16.355469 C 347.949219 -17.972656 347.488281 -18.332031 348.757812 -14.667969 C 349 -15.140625 349.652344 -13.664062 349.03125 -11.894531 C 348.902344 -10.480469 348.933594 -11.738281 349.148438 -9.613281 C 349.613281 -9.71875 349.476562 -5.984375 349.125 -6.476562 C 349.785156 -6.6875 349.136719 -3.523438 349.152344 -4.628906 C 348.707031 -6.410156 348.652344 -2.539062 349.167969 -2.253906 C 348.339844 -1.65625 348.03125 0.0820312 348.847656 0.203125 C 349.40625 0.761719 348.984375 -0.183594 349.125 2.386719 C 350.113281 4.386719 348.785156 3.898438 348.984375 5.9375 C 348.328125 6.535156 347.847656 9.019531 349.125 9.554688 C 349.371094 9.65625 349.316406 10.253906 349.058594 12.242188 C 348.890625 12.105469 349.011719 14.824219 349.125 14.351562 C 349.195312 17.757812 348.292969 17.269531 349.125 16.105469 C 349.765625 14.550781 348.183594 17.4375 347.867188 16.105469 C 347.367188 16.679688 345.546875 16.207031 346.203125 17.117188 C 347.042969 18.507812 343.933594 15.660156 344.308594 16.105469 C 344.140625 18.199219 342.015625 16.835938 341.441406 15.9375 C 340.796875 16.574219 339.28125 15.476562 338.785156 16.105469 C 337.121094 16.941406 336.347656 15.976562 334.609375 16.097656 C 333.925781 15.542969 332.601562 16.636719 331.617188 16.105469 C 330.429688 16.007812 329.289062 15.511719 327.421875 16.234375 C 326.222656 15.03125 324.402344 14.582031 323.132812 16.105469 C 322.027344 17.320312 319.179688 13.714844 318.5625 16.269531 C 316.90625 14.992188 316.386719 15.113281 313.679688 16.105469 C 312.441406 17.335938 310.957031 16.027344 309.238281 16.472656 C 308.445312 16.136719 307.621094 15.921875 306.765625 15.824219 C 305.675781 15.683594 304.609375 15.777344 303.558594 16.105469 C 302.0625 16.445312 302.089844 16.65625 300.578125 15.191406 C 299.109375 14.941406 299.121094 15.398438 298.585938 15.898438 C 297.71875 15.695312 296.84375 15.601562 295.957031 15.609375 C 294.660156 15.097656 294.0625 16.519531 293.113281 16.101562 C 290.980469 15.042969 289.953125 17.054688 287.964844 16.714844 C 286.230469 18.089844 284.148438 17.398438 282.664062 16.105469 C 280.414062 14.632812 278.722656 16.332031 277.542969 16.105469 C 276.367188 15.089844 273.867188 17.269531 272.546875 16.105469 C 270.453125 15.480469 268.1875 15.792969 266.925781 15.75 C 265.152344 16.617188 264.925781 17.207031 263.082031 16.105469 C 259.832031 14.949219 259.574219 15.441406 258.320312 16.824219 C 258.058594 15.234375 255.191406 17.09375 254.605469 16.105469 C 253.054688 13.933594 251.824219 15.269531 250.75 16.476562 C 249.230469 17.410156 248.882812 15.433594 247.4375 16.105469 C 247.761719 14.898438 245.738281 16.265625 244.867188 16.199219 C 242.800781 15.714844 242.3125 15.800781 241.914062 16.105469 C 242.070312 17.324219 240.875 17.515625 238.359375 16.105469 C 237.484375 15.882812 237.0625 14.117188 237.101562 16.105469 C 235.832031 15.910156 236.839844 15.542969 237.101562 14.355469 C 236.582031 15.921875 237.238281 13.753906 237.28125 12.875 C 236.839844 12.894531 237.210938 12.65625 237.101562 9.558594 C 236.800781 8.792969 237.980469 9.160156 237.367188 6.972656 C 238.226562 5.996094 236.28125 5.597656 237.101562 2.390625 C 237.007812 1.335938 236.261719 -0.539062 237.171875 -2.074219 C 237.503906 -2.117188 237.539062 -3.011719 237.464844 -4 C 237.402344 -4.832031 237.28125 -5.65625 237.101562 -6.472656 C 237.960938 -7.257812 237.050781 -7.546875 236.882812 -7.910156 C 237.40625 -8.761719 236.296875 -7.613281 237.011719 -10.625 C 237.625 -10.519531 235.976562 -12.191406 236.980469 -12.679688 C 237.324219 -13.238281 237.507812 -13.84375 237.527344 -14.5 C 237.550781 -15.15625 237.40625 -15.769531 237.101562 -16.351562 C 237.734375 -18.171875 236.425781 -16.964844 237.308594 -18.660156 C 237.585938 -18.660156 237.21875 -19.539062 236.855469 -21.121094 C 237.480469 -21.707031 237.203125 -21.726562 236.636719 -23.34375 C 236.097656 -23.503906 237.808594 -26.492188 237.101562 -26.570312 C 235.96875 -28.664062 235.933594 -27.535156 236.78125 -28.457031 C 236.09375 -31.898438 237.300781 -31.664062 236.832031 -31.71875 C 236.996094 -30.871094 235.0625 -30.597656 236.371094 -33.660156 C 235.832031 -35.804688 235.929688 -36.707031 237.101562 -36.453125 C 238.046875 -34.945312 236.476562 -39.28125 236.472656 -38.167969 C 237.242188 -39.59375 238.703125 -40.417969 236.800781 -41.234375 C 237.886719 -41.0625 237.542969 -43.28125 236.808594 -43.203125 C 237.320312 -44.660156 236.429688 -42.605469 237.101562 -45.3125 C 237.976562 -45.441406 238.441406 -45.53125 237.675781 -46.992188 C 237.445312 -47.625 237.003906 -49.515625 237.320312 -49.082031 C 237.777344 -50.355469 236.5 -51.84375 237.101562 -52.488281 C 237.160156 -54.355469 236.136719 -55.222656 237.101562 -55.226562 C 237.828125 -57.6875 237.574219 -57.265625 237.101562 -57.285156 C 237.957031 -58.585938 237.84375 -59.898438 237.101562 -59.035156 Z M 237.101562 -59.035156"/><path fill="#FBB92C" d="M 134.742188 -59.035156 C 134.511719 -59.8125 136.15625 -58.984375 136 -59.035156 C 136.191406 -58.109375 138.449219 -60.0625 139.554688 -59.035156 C 140.21875 -60.152344 141.109375 -59.988281 141.511719 -59.378906 C 142.949219 -59.636719 142.5625 -58.6875 145.078125 -59.035156 C 146.84375 -60.667969 147.460938 -60.5625 148.800781 -59.132812 C 149.476562 -59.375 151.46875 -58.445312 152.246094 -59.035156 C 152.949219 -59.949219 154.046875 -61.402344 156.152344 -59.363281 C 157.636719 -58.703125 159.160156 -58.59375 160.722656 -59.035156 C 162.03125 -58.445312 163.398438 -58.074219 164.824219 -57.917969 C 167.324219 -57.476562 169.070312 -57.933594 170.1875 -59.035156 C 172.65625 -59.8125 172.90625 -59.0625 174.429688 -58.957031 C 176.945312 -58.554688 178.144531 -59.113281 180.304688 -59.035156 C 180.117188 -59.234375 181.925781 -58.652344 182.898438 -59.035156 C 183.605469 -59.46875 185.351562 -59.816406 185.507812 -59.035156 C 186.589844 -60.898438 187.761719 -59.269531 188.128906 -59.035156 C 189.183594 -59.570312 190.222656 -57.527344 190.753906 -59.035156 C 192.003906 -58.789062 192.324219 -59.496094 192.847656 -59.132812 C 193.300781 -58.304688 193.605469 -58.726562 195.636719 -59.710938 C 196.566406 -60.941406 197.015625 -60.074219 197.945312 -60.140625 C 198.824219 -58.988281 200.636719 -59.875 201.207031 -59.03125 C 201.519531 -59.105469 202.710938 -57.003906 203.667969 -57.421875 C 204.6875 -57.964844 205.601562 -57.691406 206.242188 -58.847656 C 206.296875 -61.011719 206.257812 -60.21875 208.5625 -59.453125 C 209.828125 -60.542969 209.972656 -58.847656 211.324219 -59.03125 C 212.40625 -58.792969 212.328125 -59.148438 213.148438 -58.742188 C 213.363281 -58.59375 213.597656 -58.488281 213.851562 -58.425781 C 214.101562 -58.359375 214.359375 -58.339844 214.617188 -58.367188 C 214.878906 -58.394531 215.125 -58.464844 215.359375 -58.578125 C 215.59375 -58.691406 215.804688 -58.84375 215.984375 -59.03125 C 219.035156 -57.546875 218.589844 -59.414062 220.789062 -59.03125 C 222.347656 -57.53125 223.773438 -57.214844 225.402344 -59.03125 C 227.53125 -58.300781 228.351562 -59.550781 229.265625 -59.03125 C 230.628906 -60.808594 230.507812 -61.046875 232.914062 -59.214844 C 233.363281 -59.910156 235.195312 -59.894531 236.433594 -59.03125 C 237.503906 -57.488281 238.070312 -59.292969 239.390625 -58.832031 C 239.875 -59.398438 239.765625 -58.585938 241.957031 -59.03125 C 241.9375 -57.40625 245.214844 -59.339844 245.511719 -59.03125 C 247.152344 -59.691406 246.410156 -58.65625 246.769531 -59.03125 C 246.335938 -61.203125 246.511719 -57.195312 246.769531 -57.28125 C 245.816406 -57.695312 246.539062 -56.46875 246.59375 -55.449219 C 246.859375 -56.300781 248.226562 -54.449219 246.769531 -52.480469 C 246.753906 -51.484375 246.65625 -50.5 246.472656 -49.519531 C 247.347656 -50.480469 246.71875 -48.375 246.769531 -45.3125 C 246.214844 -44.792969 246.398438 -43.507812 246.367188 -42.617188 C 246.835938 -40.574219 246.832031 -42.449219 246.765625 -41.050781 C 247.421875 -38.339844 247.148438 -37.96875 246.882812 -38.289062 C 247.164062 -38.785156 245.863281 -37.292969 246.765625 -36.449219 C 247.023438 -38.074219 246.429688 -35.3125 246.75 -33.832031 C 247.539062 -32.519531 246.308594 -34.445312 246.761719 -33.636719 C 247.949219 -32.679688 246.09375 -33.5625 247.167969 -31.769531 C 245.726562 -31.769531 247.167969 -31.964844 246.941406 -29.574219 C 245.410156 -27.652344 246.242188 -30.050781 246.765625 -26.570312 C 246.035156 -25.042969 245.527344 -24.183594 246.695312 -23.570312 C 248.648438 -22.136719 247.785156 -22.300781 246.589844 -21.425781 C 247.410156 -20.214844 247.253906 -21.335938 246.390625 -18.726562 C 247.570312 -20.382812 246.53125 -15.796875 246.765625 -16.355469 C 245.589844 -17.972656 245.128906 -18.332031 246.398438 -14.667969 C 246.640625 -15.140625 247.292969 -13.664062 246.671875 -11.894531 C 246.542969 -10.480469 246.574219 -11.738281 246.789062 -9.613281 C 247.253906 -9.71875 247.117188 -5.984375 246.765625 -6.476562 C 247.425781 -6.6875 246.777344 -3.523438 246.792969 -4.628906 C 246.347656 -6.410156 246.292969 -2.539062 246.808594 -2.253906 C 245.980469 -1.65625 245.671875 0.0820312 246.488281 0.203125 C 247.046875 0.761719 246.625 -0.183594 246.765625 2.386719 C 247.753906 4.386719 246.425781 3.898438 246.625 5.9375 C 245.96875 6.535156 245.488281 9.019531 246.765625 9.554688 C 247.011719 9.65625 246.957031 10.253906 246.699219 12.242188 C 246.53125 12.105469 246.652344 14.824219 246.765625 14.351562 C 246.835938 17.757812 245.933594 17.269531 246.765625 16.105469 C 247.410156 14.550781 245.824219 17.4375 245.507812 16.105469 C 245.007812 16.679688 243.1875 16.207031 243.84375 17.117188 C 244.683594 18.507812 241.574219 15.660156 241.949219 16.105469 C 241.785156 18.199219 239.65625 16.835938 239.082031 15.9375 C 238.4375 16.574219 236.921875 15.476562 236.425781 16.105469 C 234.761719 16.941406 233.988281 15.976562 232.25 16.097656 C 231.566406 15.542969 230.242188 16.636719 229.257812 16.105469 C 228.070312 16.007812 226.929688 15.511719 225.0625 16.234375 C 223.863281 15.03125 222.042969 14.582031 220.773438 16.105469 C 219.667969 17.320312 216.820312 13.714844 216.203125 16.269531 C 214.546875 14.992188 214.027344 15.113281 211.320312 16.105469 C 210.082031 17.335938 208.597656 16.027344 206.878906 16.472656 C 206.085938 16.136719 205.261719 15.921875 204.40625 15.824219 C 203.316406 15.683594 202.25 15.777344 201.199219 16.105469 C 199.703125 16.445312 199.730469 16.65625 198.21875 15.191406 C 196.75 14.941406 196.761719 15.398438 196.226562 15.898438 C 195.359375 15.695312 194.484375 15.601562 193.597656 15.609375 C 192.300781 15.097656 191.703125 16.519531 190.753906 16.101562 C 188.621094 15.042969 187.59375 17.054688 185.605469 16.714844 C 183.871094 18.089844 181.789062 17.398438 180.304688 16.105469 C 178.054688 14.632812 176.363281 16.332031 175.183594 16.105469 C 174.007812 15.089844 171.507812 17.269531 170.1875 16.105469 C 168.09375 15.480469 165.828125 15.792969 164.566406 15.75 C 162.792969 16.617188 162.566406 17.207031 160.722656 16.105469 C 157.472656 14.949219 157.214844 15.441406 155.960938 16.824219 C 155.699219 15.234375 152.832031 17.09375 152.246094 16.105469 C 150.699219 13.933594 149.46875 15.269531 148.390625 16.476562 C 146.871094 17.410156 146.523438 15.433594 145.078125 16.105469 C 145.402344 14.898438 143.378906 16.265625 142.507812 16.199219 C 140.441406 15.714844 139.953125 15.800781 139.554688 16.105469 C 139.710938 17.324219 138.515625 17.515625 136 16.105469 C 135.125 15.882812 134.703125 14.117188 134.742188 16.105469 C 133.472656 15.910156 134.484375 15.542969 134.742188 14.355469 C 134.222656 15.921875 134.878906 13.753906 134.921875 12.875 C 134.480469 12.894531 134.851562 12.65625 134.742188 9.558594 C 134.441406 8.792969 135.621094 9.160156 135.007812 6.972656 C 135.867188 5.996094 133.921875 5.597656 134.742188 2.390625 C 134.648438 1.335938 133.902344 -0.539062 134.816406 -2.074219 C 135.148438 -2.117188 135.179688 -3.011719 135.105469 -4 C 135.042969 -4.832031 134.921875 -5.65625 134.742188 -6.472656 C 135.601562 -7.257812 134.691406 -7.546875 134.523438 -7.910156 C 135.046875 -8.761719 133.9375 -7.613281 134.652344 -10.625 C 135.265625 -10.519531 133.617188 -12.191406 134.621094 -12.679688 C 134.964844 -13.238281 135.148438 -13.84375 135.167969 -14.5 C 135.191406 -15.15625 135.046875 -15.769531 134.742188 -16.351562 C 135.375 -18.171875 134.066406 -16.964844 134.949219 -18.660156 C 135.226562 -18.660156 134.859375 -19.539062 134.496094 -21.121094 C 135.121094 -21.707031 134.84375 -21.726562 134.277344 -23.34375 C 133.738281 -23.503906 135.449219 -26.492188 134.742188 -26.570312 C 133.609375 -28.664062 133.574219 -27.535156 134.421875 -28.457031 C 133.734375 -31.898438 134.941406 -31.664062 134.472656 -31.71875 C 134.636719 -30.871094 132.703125 -30.597656 134.011719 -33.660156 C 133.472656 -35.804688 133.570312 -36.707031 134.742188 -36.453125 C 135.6875 -34.945312 134.117188 -39.28125 134.113281 -38.167969 C 134.882812 -39.59375 136.34375 -40.417969 134.441406 -41.234375 C 135.527344 -41.0625 135.183594 -43.28125 134.449219 -43.203125 C 134.960938 -44.660156 134.070312 -42.605469 134.742188 -45.3125 C 135.617188 -45.441406 136.082031 -45.53125 135.316406 -46.992188 C 135.085938 -47.625 134.644531 -49.515625 134.960938 -49.082031 C 135.417969 -50.355469 134.140625 -51.84375 134.742188 -52.488281 C 134.800781 -54.355469 133.777344 -55.222656 134.742188 -55.226562 C 135.46875 -57.6875 135.214844 -57.265625 134.742188 -57.285156 C 135.597656 -58.585938 135.484375 -59.898438 134.742188 -59.035156 Z M 134.742188 -59.035156"/><path fill="#FBB92C" d="M 50.226562 -59.035156 C 49.996094 -59.8125 51.640625 -58.984375 51.484375 -59.035156 C 51.675781 -58.109375 53.933594 -60.0625 55.042969 -59.035156 C 55.707031 -60.152344 56.597656 -59.988281 56.996094 -59.378906 C 58.433594 -59.636719 58.050781 -58.6875 60.566406 -59.035156 C 62.332031 -60.667969 62.945312 -60.5625 64.289062 -59.132812 C 64.960938 -59.375 66.957031 -58.445312 67.730469 -59.035156 C 68.4375 -59.949219 69.535156 -61.402344 71.640625 -59.363281 C 73.125 -58.703125 74.648438 -58.59375 76.210938 -59.035156 C 77.519531 -58.445312 78.886719 -58.074219 80.3125 -57.917969 C 82.8125 -57.476562 84.558594 -57.933594 85.671875 -59.035156 C 88.144531 -59.8125 88.394531 -59.0625 89.917969 -58.957031 C 92.433594 -58.554688 93.632812 -59.113281 95.792969 -59.035156 C 95.601562 -59.234375 97.410156 -58.652344 98.386719 -59.035156 C 99.089844 -59.46875 100.839844 -59.816406 100.996094 -59.035156 C 102.074219 -60.898438 103.246094 -59.269531 103.613281 -59.035156 C 104.667969 -59.570312 105.707031 -57.527344 106.238281 -59.035156 C 107.488281 -58.789062 107.808594 -59.496094 108.332031 -59.132812 C 108.789062 -58.304688 109.09375 -58.726562 111.125 -59.710938 C 112.050781 -60.941406 112.503906 -60.074219 113.429688 -60.140625 C 114.308594 -58.988281 116.125 -59.875 116.691406 -59.03125 C 117.003906 -59.105469 118.195312 -57.003906 119.15625 -57.421875 C 120.175781 -57.964844 121.085938 -57.691406 121.726562 -58.847656 C 121.785156 -61.011719 121.746094 -60.21875 124.046875 -59.453125 C 125.316406 -60.542969 125.457031 -58.847656 126.8125 -59.03125 C 127.894531 -58.792969 127.816406 -59.148438 128.636719 -58.742188 C 128.851562 -58.59375 129.085938 -58.488281 129.335938 -58.425781 C 129.589844 -58.359375 129.847656 -58.339844 130.105469 -58.367188 C 130.367188 -58.394531 130.613281 -58.464844 130.847656 -58.578125 C 131.082031 -58.691406 131.289062 -58.84375 131.46875 -59.03125 C 134.519531 -57.546875 134.078125 -59.414062 136.273438 -59.03125 C 137.832031 -57.53125 139.257812 -57.214844 140.886719 -59.03125 C 143.019531 -58.300781 143.839844 -59.550781 144.753906 -59.03125 C 146.117188 -60.808594 145.996094 -61.046875 148.398438 -59.214844 C 148.851562 -59.910156 150.683594 -59.894531 151.917969 -59.03125 C 152.988281 -57.488281 153.558594 -59.292969 154.875 -58.832031 C 155.363281 -59.398438 155.253906 -58.585938 157.445312 -59.03125 C 157.425781 -57.40625 160.703125 -59.339844 161 -59.03125 C 162.640625 -59.691406 161.898438 -58.65625 162.257812 -59.03125 C 161.820312 -61.203125 161.996094 -57.195312 162.257812 -57.28125 C 161.304688 -57.695312 162.023438 -56.46875 162.078125 -55.449219 C 162.347656 -56.300781 163.714844 -54.449219 162.257812 -52.480469 C 162.242188 -51.484375 162.144531 -50.5 161.957031 -49.519531 C 162.835938 -50.480469 162.207031 -48.375 162.257812 -45.3125 C 161.699219 -44.792969 161.882812 -43.507812 161.851562 -42.617188 C 162.324219 -40.574219 162.320312 -42.449219 162.25 -41.050781 C 162.90625 -38.339844 162.636719 -37.96875 162.367188 -38.289062 C 162.652344 -38.785156 161.347656 -37.292969 162.25 -36.449219 C 162.511719 -38.074219 161.917969 -35.3125 162.238281 -33.832031 C 163.027344 -32.519531 161.796875 -34.445312 162.246094 -33.636719 C 163.4375 -32.679688 161.578125 -33.5625 162.65625 -31.769531 C 161.210938 -31.769531 162.65625 -31.964844 162.425781 -29.574219 C 160.894531 -27.652344 161.730469 -30.050781 162.25 -26.570312 C 161.519531 -25.042969 161.011719 -24.183594 162.183594 -23.570312 C 164.136719 -22.136719 163.273438 -22.300781 162.074219 -21.425781 C 162.898438 -20.214844 162.742188 -21.335938 161.875 -18.726562 C 163.054688 -20.382812 162.019531 -15.796875 162.253906 -16.355469 C 161.074219 -17.972656 160.613281 -18.332031 161.882812 -14.667969 C 162.128906 -15.140625 162.78125 -13.664062 162.160156 -11.894531 C 162.027344 -10.480469 162.058594 -11.738281 162.277344 -9.613281 C 162.738281 -9.71875 162.605469 -5.984375 162.253906 -6.476562 C 162.910156 -6.6875 162.265625 -3.523438 162.28125 -4.628906 C 161.832031 -6.410156 161.78125 -2.539062 162.292969 -2.253906 C 161.46875 -1.65625 161.160156 0.0820312 161.976562 0.203125 C 162.53125 0.761719 162.113281 -0.183594 162.253906 2.386719 C 163.242188 4.386719 161.914062 3.898438 162.113281 5.9375 C 161.457031 6.535156 160.972656 9.019531 162.253906 9.554688 C 162.496094 9.65625 162.445312 10.253906 162.1875 12.242188 C 162.015625 12.105469 162.140625 14.824219 162.253906 14.351562 C 162.324219 17.757812 161.417969 17.269531 162.25 16.105469 C 162.894531 14.550781 161.3125 17.4375 160.996094 16.105469 C 160.496094 16.679688 158.675781 16.207031 159.328125 17.117188 C 160.167969 18.507812 157.0625 15.660156 157.433594 16.105469 C 157.269531 18.199219 155.140625 16.835938 154.566406 15.9375 C 153.921875 16.574219 152.410156 15.476562 151.910156 16.105469 C 150.246094 16.941406 149.472656 15.976562 147.734375 16.097656 C 147.054688 15.542969 145.730469 16.636719 144.742188 16.105469 C 143.554688 16.007812 142.417969 15.511719 140.546875 16.234375 C 139.351562 15.03125 137.527344 14.582031 136.257812 16.105469 C 135.152344 17.320312 132.308594 13.714844 131.691406 16.269531 C 130.035156 14.992188 129.511719 15.113281 126.804688 16.105469 C 125.570312 17.335938 124.082031 16.027344 122.363281 16.472656 C 121.570312 16.136719 120.75 15.921875 119.894531 15.824219 C 118.804688 15.683594 117.734375 15.777344 116.6875 16.105469 C 115.191406 16.445312 115.214844 16.65625 113.707031 15.191406 C 112.234375 14.941406 112.25 15.398438 111.710938 15.898438 C 110.847656 15.695312 109.972656 15.601562 109.082031 15.609375 C 107.785156 15.097656 107.1875 16.519531 106.238281 16.101562 C 104.105469 15.042969 103.078125 17.054688 101.09375 16.714844 C 99.355469 18.089844 97.273438 17.398438 95.792969 16.105469 C 93.542969 14.632812 91.851562 16.332031 90.671875 16.105469 C 89.496094 15.089844 86.992188 17.269531 85.671875 16.105469 C 83.578125 15.480469 81.316406 15.792969 80.054688 15.75 C 78.28125 16.617188 78.050781 17.207031 76.210938 16.105469 C 72.957031 14.949219 72.703125 15.441406 71.449219 16.824219 C 71.1875 15.234375 68.320312 17.09375 67.730469 16.105469 C 66.183594 13.933594 64.953125 15.269531 63.878906 16.476562 C 62.359375 17.410156 62.011719 15.433594 60.566406 16.105469 C 60.890625 14.898438 58.863281 16.265625 57.992188 16.199219 C 55.925781 15.714844 55.441406 15.800781 55.042969 16.105469 C 55.195312 17.324219 54.003906 17.515625 51.484375 16.105469 C 50.609375 15.882812 50.191406 14.117188 50.226562 16.105469 C 48.960938 15.910156 49.96875 15.542969 50.226562 14.355469 C 49.707031 15.921875 50.367188 13.753906 50.40625 12.875 C 49.96875 12.894531 50.335938 12.65625 50.226562 9.558594 C 49.929688 8.792969 51.109375 9.160156 50.496094 6.972656 C 51.355469 5.996094 49.40625 5.597656 50.226562 2.390625 C 50.136719 1.335938 49.390625 -0.539062 50.300781 -2.074219 C 50.632812 -2.117188 50.667969 -3.011719 50.59375 -4 C 50.527344 -4.832031 50.40625 -5.65625 50.226562 -6.472656 C 51.089844 -7.257812 50.175781 -7.546875 50.011719 -7.910156 C 50.535156 -8.761719 49.421875 -7.613281 50.140625 -10.625 C 50.75 -10.519531 49.105469 -12.191406 50.109375 -12.679688 C 50.453125 -13.238281 50.636719 -13.84375 50.65625 -14.5 C 50.679688 -15.15625 50.535156 -15.769531 50.226562 -16.351562 C 50.859375 -18.171875 49.554688 -16.964844 50.4375 -18.660156 C 50.714844 -18.660156 50.347656 -19.539062 49.980469 -21.121094 C 50.609375 -21.707031 50.332031 -21.726562 49.761719 -23.34375 C 49.222656 -23.503906 50.933594 -26.492188 50.226562 -26.570312 C 49.097656 -28.664062 49.0625 -27.535156 49.910156 -28.457031 C 49.222656 -31.898438 50.425781 -31.664062 49.960938 -31.71875 C 50.125 -30.871094 48.1875 -30.597656 49.5 -33.660156 C 48.960938 -35.804688 49.054688 -36.707031 50.226562 -36.453125 C 51.175781 -34.945312 49.601562 -39.28125 49.601562 -38.167969 C 50.367188 -39.59375 51.832031 -40.417969 49.925781 -41.234375 C 51.015625 -41.0625 50.671875 -43.28125 49.9375 -43.203125 C 50.445312 -44.660156 49.554688 -42.605469 50.226562 -45.3125 C 51.101562 -45.441406 51.570312 -45.53125 50.804688 -46.992188 C 50.574219 -47.625 50.132812 -49.515625 50.445312 -49.082031 C 50.90625 -50.355469 49.628906 -51.84375 50.226562 -52.488281 C 50.289062 -54.355469 49.261719 -55.222656 50.226562 -55.226562 C 50.953125 -57.6875 50.699219 -57.265625 50.226562 -57.285156 C 51.085938 -58.585938 50.972656 -59.898438 50.226562 -59.035156 Z M 50.226562 -59.035156"/><g clip-path="url(#b)"><path fill="#FBB92C" d="M -7.734375 -59.035156 C -7.96875 -59.8125 -6.320312 -58.984375 -6.476562 -59.035156 C -6.285156 -58.109375 -4.027344 -60.0625 -2.921875 -59.035156 C -2.257812 -60.152344 -1.367188 -59.988281 -0.96875 -59.378906 C 0.46875 -59.636719 0.0859375 -58.6875 2.601562 -59.035156 C 4.367188 -60.667969 4.980469 -60.5625 6.324219 -59.132812 C 6.996094 -59.375 8.992188 -58.445312 9.765625 -59.035156 C 10.472656 -59.949219 11.570312 -61.402344 13.675781 -59.363281 C 15.160156 -58.703125 16.683594 -58.59375 18.246094 -59.035156 C 19.554688 -58.445312 20.921875 -58.074219 22.347656 -57.917969 C 24.847656 -57.476562 26.59375 -57.933594 27.710938 -59.035156 C 30.179688 -59.8125 30.429688 -59.0625 31.953125 -58.957031 C 34.46875 -58.554688 35.667969 -59.113281 37.828125 -59.035156 C 37.636719 -59.234375 39.445312 -58.652344 40.421875 -59.035156 C 41.125 -59.46875 42.875 -59.816406 43.03125 -59.035156 C 44.109375 -60.898438 45.28125 -59.269531 45.648438 -59.035156 C 46.703125 -59.570312 47.746094 -57.527344 48.273438 -59.035156 C 49.523438 -58.789062 49.84375 -59.496094 50.367188 -59.132812 C 50.824219 -58.304688 51.128906 -58.726562 53.160156 -59.710938 C 54.089844 -60.941406 54.539062 -60.074219 55.46875 -60.140625 C 56.34375 -58.988281 58.160156 -59.875 58.726562 -59.03125 C 59.042969 -59.105469 60.234375 -57.003906 61.191406 -57.421875 C 62.210938 -57.964844 63.125 -57.691406 63.761719 -58.847656 C 63.820312 -61.011719 63.78125 -60.21875 66.085938 -59.453125 C 67.351562 -60.542969 67.496094 -58.847656 68.847656 -59.03125 C 69.929688 -58.792969 69.851562 -59.148438 70.671875 -58.742188 C 70.886719 -58.59375 71.121094 -58.488281 71.371094 -58.425781 C 71.625 -58.359375 71.882812 -58.339844 72.140625 -58.367188 C 72.402344 -58.394531 72.648438 -58.464844 72.882812 -58.578125 C 73.117188 -58.691406 73.324219 -58.84375 73.507812 -59.03125 C 76.554688 -57.546875 76.113281 -59.414062 78.308594 -59.03125 C 79.867188 -57.53125 81.296875 -57.214844 82.925781 -59.03125 C 85.054688 -58.300781 85.875 -59.550781 86.789062 -59.03125 C 88.152344 -60.808594 88.03125 -61.046875 90.4375 -59.214844 C 90.886719 -59.910156 92.71875 -59.894531 93.953125 -59.03125 C 95.027344 -57.488281 95.59375 -59.292969 96.914062 -58.832031 C 97.398438 -59.398438 97.289062 -58.585938 99.480469 -59.03125 C 99.460938 -57.40625 102.738281 -59.339844 103.035156 -59.03125 C 104.675781 -59.691406 103.933594 -58.65625 104.292969 -59.03125 C 103.859375 -61.203125 104.03125 -57.195312 104.292969 -57.28125 C 103.339844 -57.695312 104.0625 -56.46875 104.113281 -55.449219 C 104.382812 -56.300781 105.75 -54.449219 104.292969 -52.480469 C 104.277344 -51.484375 104.179688 -50.5 103.992188 -49.519531 C 104.871094 -50.480469 104.242188 -48.375 104.292969 -45.3125 C 103.734375 -44.792969 103.917969 -43.507812 103.890625 -42.617188 C 104.359375 -40.574219 104.355469 -42.449219 104.289062 -41.050781 C 104.945312 -38.339844 104.671875 -37.96875 104.402344 -38.289062 C 104.6875 -38.785156 103.382812 -37.292969 104.289062 -36.449219 C 104.546875 -38.074219 103.953125 -35.3125 104.273438 -33.832031 C 105.0625 -32.519531 103.832031 -34.445312 104.285156 -33.636719 C 105.472656 -32.679688 103.617188 -33.5625 104.691406 -31.769531 C 103.246094 -31.769531 104.691406 -31.964844 104.464844 -29.574219 C 102.929688 -27.652344 103.765625 -30.050781 104.289062 -26.570312 C 103.558594 -25.042969 103.050781 -24.183594 104.21875 -23.570312 C 106.171875 -22.136719 105.308594 -22.300781 104.109375 -21.425781 C 104.933594 -20.214844 104.777344 -21.335938 103.910156 -18.726562 C 105.089844 -20.382812 104.054688 -15.796875 104.289062 -16.355469 C 103.109375 -17.972656 102.648438 -18.332031 103.917969 -14.667969 C 104.164062 -15.140625 104.816406 -13.664062 104.195312 -11.894531 C 104.0625 -10.480469 104.09375 -11.738281 104.3125 -9.613281 C 104.773438 -9.71875 104.640625 -5.984375 104.289062 -6.476562 C 104.945312 -6.6875 104.300781 -3.523438 104.316406 -4.628906 C 103.867188 -6.410156 103.816406 -2.539062 104.332031 -2.253906 C 103.503906 -1.65625 103.195312 0.0820312 104.011719 0.203125 C 104.570312 0.761719 104.148438 -0.183594 104.289062 2.386719 C 105.277344 4.386719 103.949219 3.898438 104.148438 5.9375 C 103.492188 6.535156 103.011719 9.019531 104.289062 9.554688 C 104.535156 9.65625 104.480469 10.253906 104.222656 12.242188 C 104.050781 12.105469 104.175781 14.824219 104.289062 14.351562 C 104.359375 17.757812 103.453125 17.269531 104.289062 16.105469 C 104.929688 14.550781 103.347656 17.4375 103.03125 16.105469 C 102.53125 16.679688 100.710938 16.207031 101.367188 17.117188 C 102.203125 18.507812 99.097656 15.660156 99.472656 16.105469 C 99.304688 18.199219 97.179688 16.835938 96.601562 15.9375 C 95.960938 16.574219 94.445312 15.476562 93.945312 16.105469 C 92.285156 16.941406 91.511719 15.976562 89.769531 16.097656 C 89.089844 15.542969 87.765625 16.636719 86.78125 16.105469 C 85.589844 16.007812 84.453125 15.511719 82.582031 16.234375 C 81.386719 15.03125 79.566406 14.582031 78.296875 16.105469 C 77.1875 17.320312 74.34375 13.714844 73.726562 16.269531 C 72.070312 14.992188 71.546875 15.113281 68.84375 16.105469 C 67.605469 17.335938 66.121094 16.027344 64.398438 16.472656 C 63.609375 16.136719 62.785156 15.921875 61.929688 15.824219 C 60.839844 15.683594 59.769531 15.777344 58.722656 16.105469 C 57.226562 16.445312 57.253906 16.65625 55.742188 15.191406 C 54.273438 14.941406 54.285156 15.398438 53.746094 15.898438 C 52.882812 15.695312 52.007812 15.601562 51.117188 15.609375 C 49.824219 15.097656 49.222656 16.519531 48.277344 16.101562 C 46.144531 15.042969 45.113281 17.054688 43.128906 16.714844 C 41.390625 18.089844 39.308594 17.398438 37.828125 16.105469 C 35.578125 14.632812 33.886719 16.332031 32.707031 16.105469 C 31.53125 15.089844 29.03125 17.269531 27.710938 16.105469 C 25.617188 15.480469 23.351562 15.792969 22.089844 15.75 C 20.316406 16.617188 20.085938 17.207031 18.246094 16.105469 C 14.996094 14.949219 14.738281 15.441406 13.484375 16.824219 C 13.222656 15.234375 10.355469 17.09375 9.765625 16.105469 C 8.21875 13.933594 6.988281 15.269531 5.914062 16.476562 C 4.394531 17.410156 4.046875 15.433594 2.601562 16.105469 C 2.925781 14.898438 0.898438 16.265625 0.0273438 16.199219 C -2.035156 15.714844 -2.523438 15.800781 -2.921875 16.105469 C -2.765625 17.324219 -3.960938 17.515625 -6.476562 16.105469 C -7.351562 15.882812 -7.773438 14.117188 -7.734375 16.105469 C -9.003906 15.910156 -7.996094 15.542969 -7.734375 14.355469 C -8.253906 15.921875 -7.597656 13.753906 -7.554688 12.875 C -7.996094 12.894531 -7.628906 12.65625 -7.734375 9.558594 C -8.035156 8.792969 -6.855469 9.160156 -7.46875 6.972656 C -6.609375 5.996094 -8.554688 5.597656 -7.734375 2.390625 C -7.828125 1.335938 -8.574219 -0.539062 -7.664062 -2.074219 C -7.332031 -2.117188 -7.296875 -3.011719 -7.371094 -4 C -7.433594 -4.832031 -7.558594 -5.65625 -7.734375 -6.472656 C -6.875 -7.257812 -7.789062 -7.546875 -7.953125 -7.910156 C -7.429688 -8.761719 -8.539062 -7.613281 -7.824219 -10.625 C -7.210938 -10.519531 -8.859375 -12.191406 -7.855469 -12.679688 C -7.511719 -13.238281 -7.328125 -13.84375 -7.308594 -14.5 C -7.285156 -15.15625 -7.429688 -15.769531 -7.734375 -16.351562 C -7.105469 -18.171875 -8.410156 -16.964844 -7.527344 -18.660156 C -7.25 -18.660156 -7.617188 -19.539062 -7.980469 -21.121094 C -7.355469 -21.707031 -7.632812 -21.726562 -8.203125 -23.34375 C -8.738281 -23.503906 -7.03125 -26.492188 -7.734375 -26.570312 C -8.867188 -28.664062 -8.902344 -27.535156 -8.054688 -28.457031 C -8.742188 -31.898438 -7.539062 -31.664062 -8.003906 -31.71875 C -7.839844 -30.871094 -9.777344 -30.597656 -8.464844 -33.660156 C -9.003906 -35.804688 -8.910156 -36.707031 -7.734375 -36.453125 C -6.789062 -34.945312 -8.363281 -39.28125 -8.363281 -38.167969 C -7.597656 -39.59375 -6.132812 -40.417969 -8.035156 -41.234375 C -6.949219 -41.0625 -7.292969 -43.28125 -8.027344 -43.203125 C -7.519531 -44.660156 -8.410156 -42.605469 -7.734375 -45.3125 C -6.859375 -45.441406 -6.394531 -45.53125 -7.160156 -46.992188 C -7.390625 -47.625 -7.832031 -49.515625 -7.519531 -49.082031 C -7.058594 -50.355469 -8.335938 -51.84375 -7.734375 -52.488281 C -7.675781 -54.355469 -8.699219 -55.222656 -7.734375 -55.226562 C -7.011719 -57.6875 -7.261719 -57.265625 -7.734375 -57.285156 C -6.878906 -58.585938 -6.992188 -59.898438 -7.734375 -59.035156 Z M -7.734375 -59.035156"/></g></svg>