<svg xmlns="http://www.w3.org/2000/svg" width="5184" height="2592" xmlns:v="https://vecta.io/nano"><defs><clipPath id="A"><path d="M1 1394h5182v1197H1zm0 0"/></clipPath><clipPath id="B"><path d="M1 1303h742v663H1zm0 0"/></clipPath><clipPath id="C"><path d="M4337 1303h846v663h-846zm0 0"/></clipPath></defs><g clip-path="url(#A)"><path fill="#fbb92f" d="M1 1394.461h5182v2591H1zm0 0"/></g><g clip-path="url(#B)"><path fill="#fbb92f" d="M732.637 1952.84c1.957 6.598-11.953-.414-10.629 0-1.617-7.855-20.699 8.715-30.055 0-5.625 9.457-13.148 8.082-16.531 2.898-12.145 2.219-8.891-5.84-30.164-2.898-14.918 13.859-20.121 12.957-31.473.844-5.68 2.039-22.539-5.844-29.094-.844-5.969 7.738-15.23 20.063-33.043 2.781a56.6 56.6 0 0 0-9.328-3.215 56.25 56.25 0 0 0-9.742-1.559 56.59 56.59 0 0 0-9.863.145 56.73 56.73 0 0 0-9.691 1.848 113.8 113.8 0 0 0-34.676-9.484c-21.133-3.742-35.891.152-45.312 9.484-20.879 6.598-23.004.227-35.871-.66-21.258-3.41-31.406 1.316-49.664.66 1.613 1.684-13.68-3.23-21.914 0-5.957 3.668-20.734 6.625-22.055 0-9.129 15.789-19.035 1.973-22.145 0-8.906 4.527-17.699-12.781-22.184 0-10.57-2.102-13.273 3.91-17.699.844-3.852-7.039-6.422-3.473-23.602 4.871-7.836 10.453-11.656 3.102-19.492 3.676-7.418-9.777-22.758-2.277-27.562-9.434-2.648.648-12.719-17.172-20.82-13.641-8.621 4.594-16.332 2.285-21.734 12.082-.48 18.375-.16 11.648-19.625 5.148-10.703 9.223-11.918-5.148-23.355-3.59-9.152-1.996-8.477 1.012-15.414-2.437-.902-.621-1.852-1.156-2.848-1.609a18.76 18.76 0 0 0-3.082-1.09 18.83 18.83 0 0 0-3.23-.531c-1.09-.082-2.18-.066-3.27.043s-2.16.316-3.211.617a18.87 18.87 0 0 0-3.055 1.168 18.74 18.74 0 0 0-2.805 1.688 18.68 18.68 0 0 0-2.461 2.152c-25.785-12.57-22.043 3.27-40.609 0-13.176-12.695-25.227-15.375-39 0-18.004-6.18-24.941 4.418-32.668 0-11.523 15.09-10.496 17.105-30.824 1.559-3.801 5.902-19.301 5.773-29.746-1.559-9.051-13.082-13.848 2.242-25-1.687-4.094 4.797-3.184-2.062-21.691 1.688.16-13.758-27.547 2.613-30.059 0-13.871 5.621-7.586-3.18-10.629 0 3.676 18.434 2.199-15.57 0-14.836 8.051 3.508 1.957-6.879 1.5-15.512-2.258 7.219-13.82-8.504-1.5-25.168.121-8.449.965-16.82 2.531-25.121-7.41 8.141-2.109-9.703-2.531-35.676 4.703-4.398 3.152-15.309 3.414-22.852-3.969-17.305-3.937-1.434-3.371-13.285-5.547-22.988-3.246-26.133-.984-23.418-2.387 4.215 8.621-8.43.984-15.586-2.184 13.781 2.832-9.633.117-22.18-6.656-11.141 3.742 5.176-.082-1.684-10.055-8.086 5.645-.598-3.441-15.832 12.199 0 0 1.688 1.922-18.594 12.949-16.305 5.902 4.047 1.484-25.484 6.18-12.945 10.469-20.23.574-25.441-16.504-12.145-9.203-10.754.918-18.18-6.945-10.27-5.621-.75 1.684-22.863-9.969 14.035-1.211-24.867-3.184-20.102 9.953 13.695 13.848 16.758 3.117-14.332-2.055 4.012-7.586-8.496-2.324-23.512 1.102-11.984.84-1.332-.996-19.328-3.91.895-2.766-30.777.203-26.602-5.562 1.785-.094-25.039-.227-15.672 3.773 15.098 4.211-17.703-.129-20.129 6.98-5.059 9.602-19.82 2.699-20.84-4.711-4.738-1.164 3.27-2.344-18.504-8.363-16.969 2.875-12.82 1.188-30.125 5.539-5.059 9.617-26.133-1.187-30.668-2.074-.844-1.629-5.898.563-22.758 1.434 1.145.391-21.918-.562-17.898-.59-28.879 7.047-24.738.008-14.887-5.437 13.191 7.949-11.293 10.629 0 4.215-4.836 19.613-.844 14.066-8.562-7.09-11.801 19.168 12.348 16.016 8.563 1.398-17.754 19.387-6.195 24.238 1.441 5.445-5.41 18.242 3.914 22.457-1.441 14.059-7.09 20.598 1.098 35.297.094 5.758 4.695 16.941-4.578 25.285-.094 10.039.844 19.664 5.059 35.469-1.078 10.113 10.199 25.512 14.02 36.242 1.078 9.355-10.285 33.402 20.281 38.609-1.375 14.02 10.816 18.418 9.805 41.293 1.375 10.461-10.418 23.02.684 37.551-3.086a75.94 75.94 0 0 0 20.875 5.48 63.11 63.11 0 0 0 13.684.273 63.19 63.19 0 0 0 13.426-2.668c12.641-2.855 12.43-4.668 25.199 7.773 12.426 2.098 12.316-1.77 16.859-6.02 7.305 1.727 14.711 2.547 22.215 2.461 10.957 4.332 16.016-7.723 24.031-4.164 18.027 8.969 26.719-8.082 43.5-5.207 14.684-11.66 32.281-5.801 44.805 5.156 19.035 12.484 33.32-1.914 43.289 0 9.938 8.633 31.086-9.871 42.246 0 17.699 5.305 36.84 2.672 47.504 3.027 14.984-7.359 16.922-12.367 32.484-3.027 27.484 9.805 29.648 5.656 40.254-6.078 2.207 13.488 26.441-2.285 31.414 6.078 13.078 18.445 23.48 7.117 32.574-3.137 12.836-7.906 15.789 8.844 27.992 3.137-2.73 10.258 14.387-1.332 21.746-.766 17.465 4.086 21.566 3.371 24.949.766-1.316-10.332 8.781-11.937 30.055 0 7.391 1.891 10.957 16.859 10.629 0 10.73 1.688 2.191 4.781 0 14.836 4.391-13.266-1.164 5.102-1.516 12.57 3.715-.168.598 1.863 1.516 28.113 2.527 6.488-7.434 3.371-2.25 21.914-7.266 8.277 9.188 11.676 2.25 38.863.785 8.934 7.09 24.832-.617 37.871-2.805.348-3.09 7.934-2.461 16.305.539 7.059 1.566 14.047 3.078 20.965-7.266 6.676.438 9.129 1.828 12.207-4.414 7.207 4.973-2.531-1.078 22.992-5.176-.883 8.75 13.313.262 17.441a32.28 32.28 0 0 0-1.902 3.598c-.555 1.242-1.027 2.512-1.418 3.816s-.695 2.621-.914 3.965-.352 2.691-.395 4.051 0 2.711.129 4.066a31.74 31.74 0 0 0 .656 4.016c.305 1.324.695 2.625 1.168 3.898s1.031 2.512 1.664 3.715c-5.344 15.434 5.699 5.199-1.754 19.57-2.359 0 .758 7.445 3.836 20.871-5.301 4.977-2.941 5.152 1.855 18.832 4.551 1.359-9.906 26.699-3.937 27.363 9.566 17.777 9.852 8.195 2.695 16.016 5.809 29.16-4.371 27.195-.418 27.641-1.402-7.187 14.969-9.516 3.891 16.48 4.555 18.176 3.742 25.813-6.168 23.652-8-12.762 5.293 23.984 5.309 14.559-6.488 12.09-18.863 19.078-2.762 25.996-9.195-1.465-6.281 17.367-.086 16.691-4.297 12.359 3.227-5.059-2.461 17.898-7.391 1.086-11.336 1.836-4.855 14.234 1.938 5.348 5.672 21.379 3.02 17.703-3.895 10.809 6.91 23.426 1.836 28.879-.516 15.84 8.16 23.199 0 23.215-6.137 20.883-3.996 17.301 0 17.469-7.238 11.023-6.289 22.168 0 14.836zm0 0"/></g><g fill="#fbb92f"><path d="M1632.363 1952.84c1.953 6.598-11.953-.414-10.629 0-1.617-7.855-20.699 8.715-30.055 0-5.625 9.457-13.148 8.082-16.531 2.898-12.145 2.219-8.891-5.84-30.164-2.898-14.918 13.859-20.121 12.957-31.473.844-5.68 2.039-22.539-5.844-29.098-.844-5.965 7.738-15.23 20.063-33.039 2.781a56.6 56.6 0 0 0-9.328-3.215 56.31 56.31 0 0 0-9.742-1.559c-3.293-.238-6.582-.191-9.863.145s-6.516.949-9.695 1.848c-11.055-5-22.613-8.16-34.672-9.484-21.133-3.742-35.891.152-45.312 9.484-20.879 6.598-23.004.227-35.875-.66-21.254-3.41-31.402 1.316-49.66.66 1.609 1.684-13.68-3.23-21.914 0-5.957 3.668-20.734 6.625-22.059 0-9.125 15.789-19.031 1.973-22.141 0-8.91 4.527-17.699-12.781-22.184 0-10.57-2.102-13.273 3.91-17.699.844-3.852-7.039-6.422-3.473-23.602 4.871-7.836 10.453-11.656 3.102-19.496 3.676-7.414-9.777-22.754-2.277-27.559-9.434-2.648.648-12.719-17.172-20.82-13.641-8.621 4.594-16.336 2.285-21.738 12.082-.48 18.375-.16 11.648-19.621 5.148-10.703 9.223-11.918-5.148-23.355-3.59-9.152-1.996-8.477 1.012-15.414-2.437-.902-.621-1.852-1.156-2.848-1.609s-2.023-.816-3.086-1.09-2.133-.449-3.227-.531-2.18-.066-3.27.043-2.16.316-3.211.617a18.73 18.73 0 0 0-3.055 1.168 18.74 18.74 0 0 0-2.805 1.688c-.883.645-1.707 1.363-2.465 2.152-25.781-12.57-22.039 3.27-40.605 0-13.176-12.695-25.23-15.375-39 0-18.004-6.18-24.941 4.418-32.672 0-11.52 15.09-10.492 17.105-30.82 1.559-3.801 5.902-19.301 5.773-29.746-1.559-9.051-13.082-13.848 2.242-25-1.687-4.094 4.797-3.184-2.062-21.695 1.688.16-13.758-27.543 2.613-30.055 0-13.875 5.621-7.586-3.18-10.629 0 3.676 18.434 2.199-15.57 0-14.836 8.051 3.508 1.957-6.879 1.5-15.512-2.258 7.219-13.82-8.504-1.5-25.168a146.91 146.91 0 0 1 2.527-25.121c-7.406 8.141-2.105-9.703-2.527-35.676 4.703-4.398 3.152-15.309 3.414-22.852-3.969-17.305-3.937-1.434-3.371-13.285-5.547-22.988-3.246-26.133-.988-23.418-2.383 4.215 8.625-8.43.988-15.586-2.184 13.781 2.832-9.633.117-22.18-6.656-11.141 3.742 5.176-.082-1.684-10.059-8.086 5.645-.598-3.441-15.832 12.195 0 0 1.688 1.922-18.594 12.945-16.305 5.902 4.047 1.484-25.484 6.176-12.945 10.469-20.23.574-25.441-16.504-12.145-9.207-10.754.918-18.18-6.945-10.27-5.621-.75 1.684-22.863-9.969 14.035-1.211-24.867-3.184-20.102 9.953 13.695 13.848 16.758 3.117-14.332-2.055 4.012-7.586-8.496-2.324-23.512 1.102-11.984.84-1.332-.996-19.328-3.91.895-2.766-30.777.203-26.602-5.562 1.785-.094-25.039-.23-15.672 3.777 15.098 4.215-17.703-.125-20.129 6.98-5.059 9.602-19.82 2.699-20.84-4.715-4.738-1.164 3.27-2.344-18.504-8.363-16.969 2.871-12.82 1.188-30.125 5.539-5.059 9.617-26.133-1.187-30.668-2.074-.844-1.629-5.898.563-22.758 1.434 1.145.391-21.918-.562-17.898-.59-28.879 7.047-24.738.008-14.887-5.437 13.191 7.949-11.293 10.629 0 4.215-4.836 19.613-.844 14.066-8.562-7.09-11.801 19.168 12.348 16.016 8.563 1.398-17.754 19.383-6.195 24.238 1.441 5.445-5.41 18.242 3.914 22.453-1.441 14.059-7.09 20.602 1.098 35.301.094 5.758 4.695 16.941-4.578 25.285-.094 10.039.844 19.664 5.059 35.469-1.078 10.113 10.199 25.512 14.02 36.242 1.078 9.355-10.285 33.402 20.281 38.609-1.375 14.02 10.816 18.418 9.805 41.293 1.375 10.461-10.418 23.02.684 37.551-3.086 6.695 2.82 13.656 4.648 20.875 5.48 4.551.586 9.113.68 13.684.273s9.047-1.293 13.422-2.668c12.645-2.855 12.434-4.668 25.203 7.773 12.426 2.098 12.313-1.77 16.855-6.02 7.309 1.727 14.715 2.547 22.219 2.461 10.957 4.332 16.016-7.723 24.031-4.164 18.027 8.969 26.719-8.082 43.5-5.207 14.684-11.66 32.281-5.801 44.805 5.156 19.031 12.484 33.32-1.914 43.289 0 9.938 8.633 31.086-9.871 42.246 0 17.699 5.305 36.84 2.672 47.504 3.027 14.984-7.359 16.922-12.367 32.48-3.027 27.488 9.805 29.652 5.656 40.258-6.078 2.207 13.488 26.438-2.285 31.41 6.078 13.082 18.445 23.484 7.117 32.578-3.137 12.836-7.906 15.785 8.844 27.992 3.137-2.73 10.258 14.387-1.332 21.746-.766 17.461 4.086 21.566 3.371 24.949.766-1.316-10.332 8.781-11.937 30.055 0 7.391 1.891 10.957 16.859 10.629 0 10.73 1.688 2.191 4.781 0 14.836 4.391-13.266-1.164 5.102-1.52 12.57 3.719-.168.602 1.863 1.52 28.113 2.527 6.488-7.434 3.371-2.25 21.914-7.266 8.277 9.188 11.676 2.25 38.863.785 8.934 7.086 24.832-.617 37.871-2.805.348-3.094 7.934-2.461 16.305a151.88 151.88 0 0 0 3.078 20.965c-7.266 6.676.438 9.129 1.828 12.207-4.418 7.207 4.973-2.531-1.078 22.992-5.176-.883 8.75 13.313.262 17.441a32.28 32.28 0 0 0-1.902 3.598c-.555 1.242-1.027 2.512-1.418 3.816s-.695 2.621-.914 3.965-.352 2.691-.395 4.051-.004 2.711.129 4.066a31.74 31.74 0 0 0 .656 4.016c.305 1.324.695 2.625 1.168 3.898a31.61 31.61 0 0 0 1.664 3.715c-5.344 15.434 5.695 5.199-1.754 19.57-2.359 0 .758 7.445 3.836 20.871-5.301 4.977-2.941 5.152 1.855 18.832 4.551 1.359-9.906 26.699-3.937 27.363 9.566 17.777 9.852 8.195 2.695 16.016 5.809 29.16-4.375 27.195-.422 27.641-1.398-7.187 14.973-9.516 3.895 16.48 4.551 18.176 3.742 25.813-6.168 23.652-8-12.762 5.293 23.984 5.309 14.559-6.488 12.09-18.863 19.078-2.766 25.996-9.195-1.465-6.277 17.367-.082 16.691-4.301 12.359 3.227-5.059-2.461 17.898-7.395 1.086-11.336 1.836-4.855 14.234 1.938 5.348 5.672 21.379 3.016 17.703-3.891 10.809 6.914 23.426 1.84 28.879-.516 15.84 8.16 23.199 0 23.215-6.137 20.883-3.996 17.301 0 17.469-7.242 11.023-6.289 22.168 0 14.836zm0 0"/><path d="M2573.32 1952.84c1.957 6.598-11.949-.414-10.625 0-1.621-7.855-20.703 8.715-30.059 0-5.621 9.457-13.148 8.082-16.527 2.898-12.145 2.219-8.891-5.84-30.168-2.898-14.918 13.859-20.117 12.957-31.469.844-5.684 2.039-22.539-5.844-29.098-.844-5.969 7.738-15.23 20.063-33.039 2.781a56.6 56.6 0 0 0-9.328-3.215 56.31 56.31 0 0 0-9.742-1.559c-3.293-.238-6.582-.191-9.867.145a56.8 56.8 0 0 0-9.691 1.848 113.74 113.74 0 0 0-34.676-9.484c-21.129-3.742-35.887.152-45.312 9.484-20.875 6.598-23 .227-35.871-.66-21.258-3.41-31.406 1.316-49.66.66 1.609 1.684-13.68-3.23-21.914 0-5.961 3.668-20.734 6.625-22.059 0-9.129 15.789-19.031 1.973-22.141 0-8.91 4.527-17.699-12.781-22.184 0-10.57-2.102-13.277 3.91-17.703.844-3.852-7.039-6.422-3.473-23.598 4.871-7.84 10.453-11.656 3.102-19.496 3.676-7.418-9.777-22.758-2.277-27.562-9.434-2.645.648-12.719-17.172-20.816-13.641-8.625 4.594-16.336 2.285-21.738 12.082-.48 18.375-.16 11.648-19.621 5.148-10.703 9.223-11.918-5.148-23.355-3.59-9.152-1.996-8.48 1.012-15.418-2.437-.898-.621-1.848-1.156-2.844-1.609s-2.023-.816-3.086-1.09-2.137-.449-3.227-.531-2.184-.066-3.27.043a18.76 18.76 0 0 0-3.215.617 19.01 19.01 0 0 0-3.055 1.168 18.51 18.51 0 0 0-2.801 1.688c-.887.645-1.707 1.363-2.465 2.152-25.781-12.57-22.039 3.27-40.609 0-13.172-12.695-25.227-15.375-39 0-18-6.18-24.937 4.418-32.668 0-11.52 15.09-10.492 17.105-30.824 1.559-3.801 5.902-19.301 5.773-29.742-1.559-9.055-13.082-13.848 2.242-25-1.687-4.098 4.797-3.187-2.062-21.695 1.688.16-13.758-27.543 2.613-30.055 0-13.875 5.621-7.586-3.18-10.629 0 3.676 18.434 2.199-15.57 0-14.836 8.047 3.508 1.953-6.879 1.5-15.512-2.258 7.219-13.824-8.504-1.5-25.168a146.91 146.91 0 0 1 2.527-25.121c-7.41 8.141-2.105-9.703-2.527-35.676 4.703-4.398 3.152-15.309 3.414-22.852-3.973-17.305-3.937-1.434-3.371-13.285-5.547-22.988-3.246-26.133-.988-23.418-2.387 4.215 8.621-8.43.988-15.586-2.184 13.781 2.832-9.633.117-22.18-6.66-11.141 3.742 5.176-.086-1.684-10.055-8.086 5.648-.598-3.437-15.832 12.195 0 0 1.688 1.922-18.594 12.945-16.305 5.898 4.047 1.484-25.484 6.176-12.945 10.465-20.23.57-25.441-16.504-12.145-9.203-10.754.918-18.18-6.945-10.27-5.621-.75 1.688-22.863-9.973 14.035-1.215-24.867-3.187-20.102 9.957 13.695 13.848 16.758 3.121-14.332-2.059 4.012-7.586-8.496-2.328-23.512 1.105-11.984.844-1.332-.992-19.328-3.914.895-2.766-30.777.199-26.602-5.562 1.785-.09-25.039-.227-15.672 3.777 15.098 4.215-17.703-.125-20.129 6.977-5.059 9.598-19.82 2.695-20.84-4.711-4.738-1.164 3.27-2.344-18.504-8.359-16.969 2.875-12.82 1.191-30.125 5.535-5.059 9.617-26.133-1.191-30.668-2.07-.844-1.625-5.898.566-22.758 1.434 1.145.387-21.918-.566-17.898-.59-28.879 7.047-24.738.012-14.887-5.437 13.191 7.945-11.293 10.625 0 4.215-4.836 19.613-.844 14.07-8.562-7.09-11.801 19.164 12.348 16.012 8.563 1.398-17.754 19.387-6.195 24.242 1.441 5.445-5.41 18.238 3.914 22.453-1.441 14.059-7.09 20.598 1.098 35.301.094 5.754 4.695 16.941-4.578 25.285-.094 10.039.844 19.664 5.059 35.465-1.078 10.117 10.199 25.516 14.02 36.242 1.078 9.359-10.285 33.406 20.281 38.613-1.375 14.016 10.816 18.418 9.805 41.293 1.375 10.457-10.418 23.016.684 37.547-3.086 6.699 2.82 13.66 4.648 20.879 5.48 4.551.586 9.113.68 13.684.273s9.043-1.293 13.422-2.668c12.645-2.855 12.434-4.668 25.203 7.773 12.422 2.098 12.313-1.77 16.855-6.02 7.305 1.727 14.711 2.547 22.219 2.461 10.957 4.332 16.016-7.723 24.031-4.164 18.027 8.969 26.715-8.082 43.496-5.207 14.684-11.66 32.285-5.801 44.809 5.156 19.031 12.484 33.316-1.914 43.289 0 9.938 8.633 31.086-9.871 42.242 0 17.703 5.305 36.844 2.672 47.504 3.027 14.988-7.359 16.926-12.367 32.484-3.027 27.484 9.805 29.652 5.656 40.254-6.078 2.211 13.488 26.441-2.285 31.414 6.078 13.082 18.445 23.484 7.117 32.578-3.137 12.836-7.906 15.785 8.844 27.988 3.137-2.73 10.258 14.391-1.332 21.746-.766 17.465 4.086 21.57 3.371 24.949.766-1.312-10.332 8.785-11.937 30.059 0 7.391 1.891 10.957 16.859 10.625 0 10.73 1.688 2.191 4.781 0 14.836 4.395-13.266-1.16 5.102-1.516 12.57 3.719-.168.598 1.863 1.516 28.113 2.531 6.488-7.434 3.371-2.25 21.914-7.266 8.277 9.188 11.676 2.25 38.863.785 8.934 7.09 24.832-.613 37.871-2.809.348-3.094 7.934-2.461 16.305a151.87 151.87 0 0 0 3.074 20.965c-7.262 6.676.441 9.129 1.832 12.207-4.418 7.207 4.973-2.531-1.078 22.992-5.176-.883 8.746 13.313.258 17.441-.711 1.16-1.344 2.359-1.898 3.598s-1.027 2.512-1.418 3.816-.695 2.621-.918 3.965-.348 2.691-.395 4.051a31.44 31.44 0 0 0 .133 4.066c.133 1.352.348 2.691.656 4.016s.695 2.625 1.168 3.898 1.027 2.512 1.66 3.715c-5.344 15.434 5.699 5.199-1.75 19.57-2.359 0 .758 7.445 3.832 20.871-5.301 4.977-2.941 5.152 1.855 18.832 4.551 1.359-9.902 26.699-3.937 27.363 9.566 17.777 9.855 8.195 2.699 16.016 5.809 29.16-4.375 27.195-.422 27.641-1.398-7.187 14.969-9.516 3.895 16.48 4.551 18.176 3.742 25.813-6.172 23.652-7.996-12.762 5.297 23.984 5.313 14.559-6.492 12.09-18.863 19.078-2.766 25.996-9.195-1.465-6.277 17.367-.082 16.691-4.301 12.359 3.227-5.059-2.465 17.898-7.391 1.086-11.336 1.836-4.852 14.234 1.938 5.348 5.672 21.379 3.016 17.703-3.895 10.809 6.91 23.426 1.836 28.879-.512 15.84 8.16 23.199 0 23.215-6.133 20.883-3.992 17.301 0 17.469-7.238 11.023-6.285 22.168 0 14.836zm0 0"/><path d="M3485.688 1952.84c1.957 6.598-11.953-.414-10.629 0-1.617-7.855-20.699 8.715-30.055 0-5.625 9.457-13.148 8.082-16.531 2.898-12.145 2.219-8.891-5.84-30.164-2.898-14.918 13.859-20.121 12.957-31.473.844-5.68 2.039-22.539-5.844-29.094-.844-5.969 7.738-15.23 20.063-33.043 2.781a56.6 56.6 0 0 0-9.328-3.215 56.25 56.25 0 0 0-9.742-1.559c-3.293-.238-6.582-.191-9.863.145a56.73 56.73 0 0 0-9.691 1.848 113.8 113.8 0 0 0-34.676-9.484c-21.133-3.742-35.891.152-45.312 9.484-20.879 6.598-23.004.227-35.871-.66-21.258-3.41-31.406 1.316-49.664.66 1.609 1.684-13.68-3.23-21.914 0-5.957 3.668-20.734 6.625-22.055 0-9.129 15.789-19.035 1.973-22.145 0-8.906 4.527-17.699-12.781-22.184 0-10.57-2.102-13.273 3.91-17.699.844-3.852-7.039-6.422-3.473-23.602 4.871-7.836 10.453-11.656 3.102-19.492 3.676-7.418-9.777-22.758-2.277-27.562-9.434-2.648.648-12.719-17.172-20.82-13.641-8.621 4.594-16.332 2.285-21.738 12.082-.477 18.375-.16 11.648-19.621 5.148-10.703 9.223-11.918-5.148-23.355-3.59-9.152-1.996-8.477 1.012-15.414-2.437-.902-.621-1.852-1.156-2.848-1.609a18.76 18.76 0 0 0-3.082-1.09 18.83 18.83 0 0 0-3.23-.531c-1.09-.082-2.18-.066-3.27.043s-2.16.316-3.211.617a18.87 18.87 0 0 0-3.055 1.168 18.74 18.74 0 0 0-2.805 1.688c-.883.645-1.707 1.363-2.465 2.152-25.781-12.57-22.039 3.27-40.605 0-13.176-12.695-25.227-15.375-39 0-18.004-6.18-24.941 4.418-32.668 0-11.523 15.09-10.496 17.105-30.824 1.559-3.801 5.902-19.301 5.773-29.746-1.559-9.051-13.082-13.848 2.242-25-1.687-4.094 4.797-3.184-2.062-21.695 1.688.16-13.758-27.543 2.613-30.055 0-13.875 5.621-7.586-3.18-10.629 0 3.676 18.434 2.199-15.57 0-14.836 8.051 3.508 1.957-6.879 1.5-15.512-2.258 7.219-13.82-8.504-1.5-25.168.121-8.449.965-16.82 2.531-25.121-7.41 8.141-2.109-9.703-2.531-35.676 4.703-4.398 3.152-15.309 3.414-22.852-3.969-17.305-3.937-1.434-3.371-13.285-5.547-22.988-3.246-26.133-.984-23.418-2.387 4.215 8.621-8.43.984-15.586-2.184 13.781 2.832-9.633.117-22.18-6.656-11.141 3.742 5.176-.082-1.684-10.059-8.086 5.645-.598-3.441-15.832 12.195 0 0 1.688 1.922-18.594 12.945-16.305 5.902 4.047 1.484-25.484 6.18-12.945 10.469-20.23.574-25.441-16.504-12.145-9.207-10.754.918-18.18-6.945-10.27-5.621-.75 1.684-22.863-9.969 14.035-1.211-24.867-3.184-20.102 9.953 13.695 13.848 16.758 3.117-14.332-2.055 4.012-7.586-8.496-2.324-23.512 1.102-11.984.84-1.332-.996-19.328-3.91.895-2.766-30.777.203-26.602-5.562 1.785-.094-25.039-.227-15.672 3.773 15.098 4.211-17.703-.129-20.129 6.98-5.059 9.602-19.82 2.699-20.84-4.715-4.738-1.164 3.27-2.344-18.504-8.363-16.969 2.875-12.82 1.188-30.125 5.539-5.059 9.617-26.133-1.187-30.668-2.074-.844-1.629-5.898.563-22.758 1.434 1.145.391-21.918-.562-17.898-.59-28.879 7.047-24.738.008-14.887-5.437 13.191 7.949-11.293 10.629 0 4.215-4.836 19.613-.844 14.066-8.562-7.09-11.801 19.168 12.348 16.016 8.563 1.398-17.754 19.383-6.195 24.238 1.441 5.445-5.41 18.242 3.914 22.453-1.441 14.063-7.09 20.602 1.098 35.301.094 5.758 4.695 16.941-4.578 25.285-.094 10.039.844 19.664 5.059 35.469-1.078 10.113 10.199 25.512 14.02 36.242 1.078 9.355-10.285 33.402 20.281 38.609-1.375 14.02 10.816 18.418 9.805 41.293 1.375 10.461-10.418 23.02.684 37.551-3.086a75.94 75.94 0 0 0 20.875 5.48c4.551.586 9.113.68 13.684.273a63.19 63.19 0 0 0 13.426-2.668c12.641-2.855 12.43-4.668 25.199 7.773 12.426 2.098 12.316-1.77 16.859-6.02 7.305 1.727 14.711 2.547 22.215 2.461 10.957 4.332 16.016-7.723 24.031-4.164 18.027 8.969 26.719-8.082 43.5-5.207 14.684-11.66 32.281-5.801 44.805 5.156 19.031 12.484 33.32-1.914 43.289 0 9.938 8.633 31.086-9.871 42.246 0 17.699 5.305 36.84 2.672 47.504 3.027 14.984-7.359 16.922-12.367 32.484-3.027 27.484 9.805 29.648 5.656 40.254-6.078 2.207 13.488 26.441-2.285 31.414 6.078 13.078 18.445 23.48 7.117 32.574-3.137 12.836-7.906 15.789 8.844 27.992 3.137-2.73 10.258 14.387-1.332 21.746-.766 17.465 4.086 21.566 3.371 24.949.766-1.316-10.332 8.781-11.937 30.055 0 7.391 1.891 10.957 16.859 10.629 0 10.73 1.688 2.191 4.781 0 14.836 4.391-13.266-1.164 5.102-1.516 12.57 3.715-.168.598 1.863 1.516 28.113 2.527 6.488-7.434 3.371-2.25 21.914-7.266 8.277 9.188 11.676 2.25 38.863.785 8.934 7.09 24.832-.617 37.871-2.805.348-3.09 7.934-2.461 16.305a151.88 151.88 0 0 0 3.078 20.965c-7.266 6.676.438 9.129 1.828 12.207-4.414 7.207 4.973-2.531-1.078 22.992-5.176-.883 8.75 13.313.262 17.441a32.28 32.28 0 0 0-1.902 3.598c-.555 1.242-1.027 2.512-1.418 3.816s-.695 2.621-.914 3.965-.352 2.691-.395 4.051 0 2.711.129 4.066a31.74 31.74 0 0 0 .656 4.016c.305 1.324.695 2.625 1.168 3.898s1.031 2.512 1.664 3.715c-5.344 15.434 5.699 5.199-1.754 19.57-2.359 0 .758 7.445 3.836 20.871-5.301 4.977-2.941 5.152 1.855 18.832 4.551 1.359-9.906 26.699-3.937 27.363 9.566 17.777 9.852 8.195 2.695 16.016 5.809 29.16-4.371 27.195-.418 27.641-1.402-7.187 14.969-9.516 3.891 16.48 4.555 18.176 3.742 25.813-6.168 23.652-8-12.762 5.293 23.984 5.309 14.559-6.488 12.09-18.863 19.078-2.762 25.996-9.199-1.465-6.281 17.367-.086 16.691-4.297 12.359 3.227-5.059-2.461 17.898-7.391 1.086-11.336 1.836-4.855 14.234 1.938 5.348 5.672 21.379 3.02 17.703-3.895 10.809 6.91 23.426 1.836 28.879-.516 15.84 8.16 23.199 0 23.215-6.137 20.883-3.996 17.301 0 17.469-7.242 11.023-6.289 22.168 0 14.836zm0 0"/><path d="M4372.773 1952.84c1.957 6.598-11.949-.414-10.629 0-1.617-7.855-20.699 8.715-30.055 0-5.621 9.457-13.148 8.082-16.527 2.898-12.148 2.219-8.895-5.84-30.168-2.898-14.918 13.859-20.117 12.957-31.473.844-5.68 2.039-22.535-5.844-29.094-.844-5.969 7.738-15.23 20.063-33.039 2.781-3.02-1.344-6.125-2.414-9.328-3.215a56.37 56.37 0 0 0-9.742-1.559c-3.293-.238-6.582-.191-9.867.145a56.73 56.73 0 0 0-9.691 1.848 113.8 113.8 0 0 0-34.676-9.484c-21.129-3.742-35.891.152-45.312 9.484-20.879 6.598-23 .227-35.871-.66-21.258-3.41-31.406 1.316-49.66.66 1.609 1.684-13.68-3.23-21.914 0-5.961 3.668-20.734 6.625-22.059 0-9.129 15.789-19.031 1.973-22.145 0-8.906 4.527-17.699-12.781-22.184 0-10.566-2.102-13.273 3.91-17.699.844-3.852-7.039-6.422-3.473-23.598 4.871-7.84 10.453-11.66 3.102-19.496 3.676-7.418-9.777-22.758-2.277-27.562-9.434-2.645.648-12.719-17.172-20.816-13.641-8.625 4.594-16.336 2.285-21.738 12.082-.48 18.375-.16 11.648-19.621 5.148-10.707 9.223-11.918-5.148-23.355-3.59-9.156-1.996-8.48 1.012-15.418-2.437-.902-.621-1.848-1.156-2.848-1.609a18.76 18.76 0 0 0-3.082-1.09 18.85 18.85 0 0 0-3.227-.531c-1.094-.082-2.184-.066-3.273.043s-2.16.316-3.211.617a18.87 18.87 0 0 0-3.055 1.168 18.74 18.74 0 0 0-2.805 1.688 18.68 18.68 0 0 0-2.461 2.152c-25.785-12.57-22.043 3.27-40.609 0-13.176-12.695-25.227-15.375-39 0-18.004-6.18-24.941 4.418-32.668 0-11.523 15.09-10.496 17.105-30.824 1.559-3.801 5.902-19.301 5.773-29.746-1.559-9.051-13.082-13.848 2.242-24.996-1.687-4.098 4.797-3.187-2.062-21.695 1.688.16-13.758-27.547 2.613-30.059 0-13.871 5.621-7.586-3.18-10.629 0 3.676 18.434 2.203-15.57 0-14.836 8.051 3.508 1.957-6.879 1.504-15.512-2.262 7.219-13.824-8.504-1.504-25.168.125-8.449.965-16.82 2.531-25.121-7.41 8.141-2.109-9.703-2.531-35.676 4.703-4.398 3.152-15.309 3.414-22.852-3.969-17.305-3.934-1.434-3.371-13.285-5.547-22.988-3.242-26.133-.984-23.418-2.387 4.215 8.621-8.43.984-15.586-2.184 13.781 2.832-9.633.117-22.18-6.656-11.141 3.742 5.176-.082-1.684-10.055-8.086 5.648-.598-3.437-15.832 12.195 0 0 1.688 1.918-18.594 12.949-16.305 5.902 4.047 1.484-25.484 6.18-12.945 10.469-20.23.574-25.441-16.504-12.145-9.203-10.754.918-18.18-6.945-10.27-5.621-.75 1.688-22.863-9.973 14.035-1.215-24.867-3.187-20.102 9.953 13.695 13.848 16.758 3.117-14.332-2.055 4.012-7.586-8.496-2.324-23.512 1.105-11.984.844-1.332-.996-19.328-3.91.895-2.762-30.777.203-26.602-5.562 1.785-.094-25.039-.227-15.672 3.773 15.098 4.215-17.703-.129-20.129 6.98-5.059 9.602-19.82 2.699-20.84-4.711-4.738-1.164 3.27-2.344-18.504-8.359-16.969 2.875-12.82 1.188-30.125 5.539-5.059 9.617-26.133-1.187-30.668-2.074-.844-1.625-5.898.566-22.758 1.43 1.145.387-21.918-.566-17.898-.59-28.879 7.047-24.738.008-14.887-5.434 13.191 7.949-11.293 10.629 0 4.215-4.836 19.613-.844 14.066-8.562-7.086-11.801 19.168 12.348 16.016 8.563 1.398-17.754 19.387-6.195 24.242 1.441 5.441-5.41 18.238 3.914 22.453-1.441 14.059-7.09 20.598 1.098 35.297.094 5.758 4.695 16.941-4.578 25.285-.094 10.039.844 19.664 5.059 35.469-1.078 10.113 10.199 25.512 14.02 36.242 1.078 9.355-10.285 33.402 20.281 38.613-1.375 14.016 10.816 18.414 9.805 41.289 1.375 10.461-10.418 23.02.684 37.551-3.086a75.93 75.93 0 0 0 20.879 5.48 63.07 63.07 0 0 0 13.68.273 63.14 63.14 0 0 0 13.426-2.668c12.641-2.855 12.43-4.668 25.199 7.773 12.426 2.098 12.316-1.77 16.859-6.02 7.305 1.727 14.711 2.547 22.219 2.461 10.957 4.332 16.012-7.723 24.027-4.164 18.031 8.969 26.719-8.082 43.5-5.207 14.684-11.66 32.281-5.801 44.809 5.156 19.031 12.484 33.316-1.914 43.289 0 9.938 8.633 31.082-9.871 42.242 0 17.699 5.305 36.84 2.672 47.504 3.027 14.984-7.359 16.926-12.367 32.484-3.027 27.484 9.805 29.652 5.656 40.254-6.078 2.207 13.488 26.441-2.285 31.414 6.078 13.082 18.445 23.48 7.117 32.574-3.137 12.84-7.906 15.789 8.844 27.992 3.137-2.73 10.258 14.387-1.332 21.746-.766 17.465 4.086 21.57 3.371 24.949.766-1.316-10.332 8.781-11.937 30.055 0 7.395 1.891 10.957 16.859 10.629 0 10.73 1.688 2.191 4.781 0 14.836 4.391-13.266-1.164 5.102-1.516 12.57 3.715-.168.598 1.863 1.516 28.113 2.531 6.488-7.434 3.371-2.25 21.914-7.266 8.277 9.188 11.676 2.25 38.863.785 8.934 7.09 24.832-.613 37.871-2.809.348-3.094 7.934-2.461 16.305a151.87 151.87 0 0 0 3.074 20.965c-7.266 6.676.438 9.129 1.828 12.207-4.414 7.207 4.973-2.531-1.078 22.992-5.176-.883 8.75 13.313.262 17.441-.711 1.16-1.344 2.359-1.898 3.598s-1.031 2.512-1.422 3.816-.695 2.621-.914 3.965-.352 2.691-.395 4.051a31.44 31.44 0 0 0 .133 4.066c.129 1.352.348 2.691.652 4.016a31.51 31.51 0 0 0 1.172 3.898c.473 1.273 1.027 2.512 1.66 3.715-5.344 15.434 5.699 5.199-1.754 19.57-2.359 0 .762 7.445 3.836 20.871-5.301 4.977-2.941 5.152 1.855 18.832 4.551 1.359-9.902 26.699-3.937 27.363 9.566 17.777 9.855 8.195 2.699 16.016 5.805 29.16-4.375 27.195-.422 27.641-1.398-7.187 14.969-9.516 3.895 16.48 4.551 18.176 3.742 25.813-6.172 23.652-7.996-12.762 5.293 23.984 5.313 14.559-6.492 12.09-18.863 19.078-2.766 25.996-9.195-1.465-6.281 17.367-.086 16.691-4.297 12.359 3.23-5.059-2.461 17.898-7.391 1.086-11.336 1.836-4.855 14.234 1.941 5.348 5.672 21.379 3.02 17.703-3.895 10.809 6.91 23.426 1.836 28.879-.512 15.84 8.16 23.199 0 23.215-6.137 20.883-3.996 17.301 0 17.469-7.238 11.023-6.285 22.168 0 14.836zm0 0"/></g><g clip-path="url(#C)"><path fill="#fbb92f" d="M5293.566 1952.84c1.953 6.598-11.953-.414-10.629 0-1.621-7.855-20.703 8.715-30.059 0-5.621 9.457-13.148 8.082-16.527 2.898-12.145 2.219-8.891-5.84-30.164-2.898-14.922 13.859-20.121 12.957-31.473.844-5.684 2.039-22.539-5.844-29.098-.844-5.965 7.738-15.23 20.063-33.039 2.781a56.6 56.6 0 0 0-9.328-3.215 56.31 56.31 0 0 0-9.742-1.559c-3.293-.238-6.582-.191-9.867.145s-6.512.949-9.691 1.848a113.74 113.74 0 0 0-34.676-9.484c-21.129-3.742-35.887.152-45.312 9.484-20.875 6.598-23 .227-35.871-.66-21.254-3.41-31.402 1.316-49.66.66 1.609 1.684-13.68-3.23-21.914 0-5.961 3.668-20.734 6.625-22.059 0-9.129 15.789-19.031 1.973-22.141 0-8.91 4.527-17.699-12.781-22.184 0-10.57-2.102-13.277 3.91-17.699.844-3.852-7.039-6.426-3.473-23.602 4.871-7.84 10.453-11.656 3.102-19.496 3.676-7.418-9.777-22.758-2.277-27.562-9.434-2.645.648-12.719-17.172-20.816-13.641-8.621 4.594-16.336 2.285-21.738 12.082-.48 18.375-.16 11.648-19.621 5.148-10.703 9.223-11.918-5.148-23.355-3.59-9.152-1.996-8.48 1.012-15.414-2.437-.902-.621-1.852-1.156-2.848-1.609s-2.023-.816-3.086-1.09-2.137-.449-3.227-.531a18.65 18.65 0 0 0-3.27.043 18.76 18.76 0 0 0-3.215.617 19.01 19.01 0 0 0-3.055 1.168 18.51 18.51 0 0 0-2.801 1.688 18.47 18.47 0 0 0-2.465 2.152c-25.781-12.57-22.039 3.27-40.609 0-13.172-12.695-25.227-15.375-38.996 0-18.004-6.18-24.941 4.418-32.672 0-11.52 15.09-10.492 17.105-30.824 1.559-3.801 5.902-19.301 5.773-29.742-1.559-9.051-13.082-13.848 2.242-25-1.687-4.098 4.797-3.184-2.062-21.695 1.688.16-13.758-27.543 2.613-30.055 0-13.875 5.621-7.586-3.18-10.629 0 3.676 18.434 2.199-15.57 0-14.836 8.051 3.508 1.953-6.879 1.5-15.512-2.258 7.219-13.824-8.504-1.5-25.168a146.91 146.91 0 0 1 2.527-25.121c-7.406 8.141-2.105-9.703-2.527-35.676 4.703-4.398 3.152-15.309 3.414-22.852-3.973-17.305-3.937-1.434-3.371-13.285-5.547-22.988-3.246-26.133-.988-23.418-2.383 4.215 8.625-8.43.988-15.586-2.184 13.781 2.832-9.633.117-22.18-6.66-11.141 3.742 5.176-.086-1.684-10.055-8.086 5.648-.598-3.437-15.832 12.195 0 0 1.688 1.922-18.594 12.945-16.305 5.898 4.047 1.484-25.484 6.176-12.945 10.469-20.23.57-25.441-16.5-12.145-9.203-10.754.922-18.18-6.945-10.27-5.625-.75 1.684-22.863-9.969 14.035-1.215-24.867-3.184-20.102 9.953 13.695 13.848 16.758 3.117-14.332-2.059 4.012-7.586-8.496-2.328-23.512 1.105-11.984.844-1.332-.992-19.328-3.91.895-2.766-30.777.203-26.602-5.566 1.785-.094-25.039-.23-15.672 3.777 15.098 4.215-17.703-.125-20.129 6.977-5.059 9.602-19.82 2.695-20.84-4.711-4.738-1.16 3.27-2.34-18.504-8.363-16.969 2.871-12.82 1.188-30.125 5.535-5.059 9.617-26.133-1.187-30.668-2.074-.844-1.629-5.898.563-22.758 1.434 1.145.387-21.918-.562-17.898-.594-28.879 7.043-24.738.008-14.887-5.437 13.191 7.945-11.293 10.629 0 4.211-4.836 19.613-.844 14.066-8.562-7.09-11.801 19.164 12.348 16.012 8.563 1.402-17.754 19.387-6.195 24.242 1.441 5.445-5.41 18.238 3.914 22.453-1.441 14.059-7.09 20.602 1.098 35.301.094 5.754 4.695 16.941-4.578 25.285-.094 10.039.844 19.664 5.059 35.465-1.078 10.117 10.199 25.516 14.02 36.246 1.078 9.355-10.285 33.402 20.281 38.609-1.375 14.016 10.816 18.418 9.805 41.293 1.375 10.461-10.418 23.02.684 37.547-3.086 6.699 2.82 13.66 4.648 20.879 5.48 4.551.586 9.113.68 13.684.273s9.047-1.293 13.422-2.668c12.645-2.855 12.434-4.668 25.203 7.773 12.422 2.098 12.313-1.77 16.855-6.02 7.305 1.727 14.711 2.547 22.219 2.461 10.957 4.332 16.016-7.723 24.031-4.164 18.027 8.969 26.719-8.082 43.5-5.207 14.68-11.66 32.281-5.801 44.805 5.156 19.031 12.484 33.316-1.914 43.289 0 9.938 8.633 31.086-9.871 42.246 0 17.699 5.305 36.84 2.672 47.5 3.027 14.988-7.359 16.926-12.367 32.484-3.027 27.488 9.805 29.652 5.656 40.254-6.078 2.211 13.488 26.441-2.285 31.414 6.078 13.082 18.445 23.484 7.117 32.578-3.137 12.836-7.906 15.785 8.844 27.992 3.137-2.734 10.258 14.387-1.332 21.746-.766 17.461 4.086 21.566 3.371 24.945.766-1.312-10.332 8.785-11.937 30.059 0 7.391 1.891 10.957 16.859 10.629 0 10.727 1.688 2.191 4.781 0 14.836 4.391-13.266-1.164 5.102-1.52 12.57 3.719-.168.598 1.863 1.52 28.113 2.527 6.488-7.434 3.371-2.25 21.914-7.266 8.277 9.184 11.676 2.25 38.863.781 8.934 7.086 24.832-.617 37.871-2.805.348-3.094 7.934-2.461 16.305a151.88 151.88 0 0 0 3.078 20.965c-7.266 6.676.438 9.129 1.828 12.207-4.418 7.207 4.973-2.531-1.078 22.992-5.176-.883 8.746 13.313.262 17.441-.711 1.16-1.348 2.359-1.902 3.598s-1.027 2.512-1.418 3.816a31.19 31.19 0 0 0-.914 3.965 31.26 31.26 0 0 0-.398 4.051 31.44 31.44 0 0 0 .133 4.066c.133 1.352.352 2.691.656 4.016s.695 2.625 1.168 3.898a30.98 30.98 0 0 0 1.664 3.715c-5.344 15.434 5.695 5.199-1.754 19.57-2.359 0 .758 7.445 3.836 20.871-5.305 4.977-2.941 5.152 1.852 18.832 4.551 1.359-9.902 26.699-3.934 27.363 9.566 17.777 9.852 8.195 2.695 16.016 5.809 29.16-4.375 27.195-.422 27.641-1.398-7.187 14.969-9.516 3.895 16.48 4.551 18.176 3.742 25.813-6.168 23.652-8-12.762 5.293 23.984 5.309 14.559-6.488 12.09-18.863 19.078-2.766 25.996-9.195-1.465-6.277 17.367-.082 16.691-4.301 12.359 3.227-5.059-2.461 17.898-7.395 1.086-11.34 1.836-4.855 14.234 1.938 5.348 5.672 21.379 3.016 17.703-3.895 10.809 6.914 23.426 1.84 28.879-.516 15.84 8.156 23.199 0 23.215-6.137 20.883-3.996 17.301 0 17.469-7.242 11.023-6.289 22.168 0 14.836zm0 0"/></g></svg>